<svg width="58" height="35" viewBox="0 0 58 35" fill="none" xmlns="http://www.w3.org/2000/svg">
<rect x="12.6278" y="3.20654" width="38.0782" height="21.6753" rx="0.146454" fill="#EB5F31"/>
<rect x="55.0997" y="0.0144043" width="4.10072" height="4.10072" rx="0.146454" transform="rotate(45 55.0997 0.0144043)" fill="#F5C354"/>
<path d="M32.9888 31.9743C32.3202 31.9743 31.7141 31.8306 31.1705 31.5431C30.6331 31.2494 30.2082 30.8464 29.8957 30.334C29.5895 29.8154 29.4364 29.2311 29.4364 28.5812C29.4364 27.9314 29.5895 27.3502 29.8957 26.8378C30.2082 26.3192 30.6331 25.9162 31.1705 25.6287C31.7141 25.335 32.3234 25.1882 32.9982 25.1882C33.5668 25.1882 34.0792 25.2882 34.5354 25.4881C34.9978 25.6881 35.3852 25.9755 35.6977 26.3504L34.7229 27.2503C34.2792 26.7379 33.7293 26.4817 33.0732 26.4817C32.667 26.4817 32.3046 26.5723 31.9859 26.7535C31.6672 26.9285 31.4173 27.1753 31.2361 27.494C31.0611 27.8126 30.9736 28.1751 30.9736 28.5812C30.9736 28.9874 31.0611 29.3498 31.2361 29.6685C31.4173 29.9872 31.6672 30.2371 31.9859 30.4184C32.3046 30.5933 32.667 30.6808 33.0732 30.6808C33.7293 30.6808 34.2792 30.4215 34.7229 29.9028L35.6977 30.8027C35.3852 31.1838 34.9978 31.4744 34.5354 31.6744C34.073 31.8743 33.5575 31.9743 32.9888 31.9743ZM39.6601 31.9743C38.979 31.9743 38.3635 31.8274 37.8136 31.5338C37.27 31.2401 36.842 30.837 36.5295 30.3246C36.2233 29.806 36.0702 29.2249 36.0702 28.5812C36.0702 27.9376 36.2233 27.3596 36.5295 26.8472C36.842 26.3286 37.27 25.9224 37.8136 25.6287C38.3635 25.335 38.979 25.1882 39.6601 25.1882C40.3412 25.1882 40.9536 25.335 41.4973 25.6287C42.0409 25.9224 42.4689 26.3286 42.7814 26.8472C43.0938 27.3596 43.25 27.9376 43.25 28.5812C43.25 29.2249 43.0938 29.806 42.7814 30.3246C42.4689 30.837 42.0409 31.2401 41.4973 31.5338C40.9536 31.8274 40.3412 31.9743 39.6601 31.9743ZM39.6601 30.6808C40.0476 30.6808 40.3975 30.5933 40.7099 30.4184C41.0224 30.2371 41.2661 29.9872 41.441 29.6685C41.6222 29.3498 41.7128 28.9874 41.7128 28.5812C41.7128 28.1751 41.6222 27.8126 41.441 27.494C41.2661 27.1753 41.0224 26.9285 40.7099 26.7535C40.3975 26.5723 40.0476 26.4817 39.6601 26.4817C39.2727 26.4817 38.9228 26.5723 38.6103 26.7535C38.2979 26.9285 38.0511 27.1753 37.8699 27.494C37.6949 27.8126 37.6074 28.1751 37.6074 28.5812C37.6074 28.9874 37.6949 29.3498 37.8699 29.6685C38.0511 29.9872 38.2979 30.2371 38.6103 30.4184C38.9228 30.5933 39.2727 30.6808 39.6601 30.6808ZM44.2881 25.3007H47.2687C47.9811 25.3007 48.6091 25.4381 49.1527 25.7131C49.7026 25.9818 50.1275 26.3629 50.4275 26.8566C50.7336 27.3502 50.8867 27.9251 50.8867 28.5812C50.8867 29.2374 50.7336 29.8122 50.4275 30.3059C50.1275 30.7995 49.7026 31.1838 49.1527 31.4588C48.6091 31.7275 47.9811 31.8618 47.2687 31.8618H44.2881V25.3007ZM47.1937 30.6152C47.8499 30.6152 48.3716 30.434 48.7591 30.0716C49.1527 29.7029 49.3496 29.2061 49.3496 28.5812C49.3496 27.9564 49.1527 27.4627 48.7591 27.1003C48.3716 26.7316 47.8499 26.5473 47.1937 26.5473H45.8065V30.6152H47.1937Z" fill="#F26949"/>
<path fill-rule="evenodd" clip-rule="evenodd" d="M16.1878 9.82517C16.1603 9.85263 16.1449 9.88988 16.1449 9.92872V15.2422L16.1449 18.2164C16.1449 18.2552 16.1603 18.2925 16.1878 18.3199L20.1009 22.233C20.1284 22.2605 20.1656 22.2759 20.2045 22.2759H30.7908C30.7908 22.2759 30.7908 22.2759 30.7908 22.276C30.7908 22.276 30.7908 22.276 30.7908 22.276H43.1342C43.173 22.276 43.2103 22.2605 43.2377 22.2331L47.1508 18.32C47.1783 18.2925 47.1937 18.2553 47.1937 18.2164V12.9036C47.1937 12.9032 47.1934 12.9029 47.193 12.9029C47.1927 12.9029 47.1924 12.9026 47.1924 12.9022V9.92733C47.1924 9.88848 47.1769 9.85123 47.1495 9.82377L43.2377 5.91204C43.2103 5.88458 43.173 5.86915 43.1342 5.86915L32.5478 5.86914H20.2045C20.1656 5.86914 20.1284 5.88457 20.1009 5.91204L16.1878 9.82517Z" fill="#EE825B"/>
<circle cx="31.3751" cy="14.0739" r="6.44399" fill="#EB5D2D"/>
<path d="M12.2659 21.8684C8.52588 17.3953 3.40853 21.5212 0.471545 21.6574C0.390748 21.6611 0.326904 21.7264 0.326904 21.8072V32.9378C0.326904 33.0187 0.392474 33.0843 0.473358 33.0843H20.815C20.8253 33.0843 20.8354 33.0832 20.8455 33.081C24.8167 32.221 29.7885 27.5553 31.5127 25.1373C31.5806 25.0421 31.5115 24.9123 31.3945 24.9123H20.0441C19.9094 24.9123 19.8445 24.7459 19.9436 24.6548C22.7075 22.1145 28.3148 15.8228 24.6383 13.4594C22.0022 11.7647 14.9723 21.9537 14.3865 21.6608C13.9478 21.4414 12.9613 21.7184 12.4366 21.9148C12.3766 21.9373 12.307 21.9176 12.2659 21.8684Z" fill="#F5BB89"/>
</svg>
