<svg width="39" height="39" viewBox="0 0 39 39" fill="none" xmlns="http://www.w3.org/2000/svg">
<path d="M12.0417 0.895996H27.3166C31.1648 0.895996 32.5602 1.29667 33.9669 2.04903C35.3738 2.80139 36.4779 3.90547 37.2302 5.31227C37.9825 6.71906 38.3832 8.11447 38.3832 11.9626V27.2375C38.3832 31.0857 37.9825 32.4811 37.2302 33.8878C36.4779 35.2947 35.3738 36.3988 33.9669 37.1511C32.5602 37.9034 31.1648 38.3041 27.3166 38.3041H12.0417C8.19357 38.3041 6.79816 37.9034 5.39136 37.1511C3.98457 36.3988 2.8805 35.2947 2.12813 33.8878C1.37577 32.4811 0.975098 31.0857 0.975098 27.2375V11.9626C0.975098 8.11447 1.37577 6.71906 2.12813 5.31227C2.8805 3.90547 3.98457 2.80139 5.39136 2.04903C6.79816 1.29667 8.19357 0.895996 12.0417 0.895996Z" fill="#A50064"/>
<path d="M27.1082 8.08911C24.0584 8.08911 21.5866 10.4139 21.5866 13.2816C21.5866 16.1498 24.0584 18.4748 27.1082 18.4748C30.1577 18.4748 32.6296 16.1498 32.6296 13.2816C32.6296 10.4139 30.1577 8.08911 27.1082 8.08911ZM27.1082 15.4979C25.8144 15.4979 24.7631 14.5095 24.7631 13.2929C24.7631 12.0761 25.8144 11.0875 27.1082 11.0875C28.4018 11.0875 29.4531 12.0761 29.4531 13.2929C29.4531 14.5095 28.4018 15.4982 27.1082 15.4982V15.4979ZM19.9926 18.486H16.8159V11.9567C16.8159 11.4678 16.4 11.0772 15.8804 11.0772C15.3606 11.0772 14.9446 11.4678 14.9446 11.9567V18.486H11.7683V11.9567C11.7683 11.4678 11.3526 11.0772 10.8327 11.0772C10.3129 11.0772 9.89691 11.4678 9.89691 11.9567V18.486H6.73169V11.9892C6.73169 9.83823 8.59148 8.08911 10.8786 8.08911C11.8142 8.08911 12.6691 8.38249 13.3621 8.8712C14.1622 8.3498 14.9901 8.08911 15.8456 8.08911C18.1327 8.08911 19.9926 9.83823 19.9926 11.9892V18.486ZM27.1082 20.7239C24.0584 20.7239 21.5866 23.0485 21.5866 25.9164C21.5866 28.7846 24.0584 31.1095 27.1082 31.1095C30.1577 31.1092 32.6296 28.7843 32.6296 25.9164C32.6296 23.0485 30.1577 20.7236 27.1082 20.7236V20.7239ZM15.8456 20.7118C18.1327 20.7118 19.9926 22.4609 19.9926 24.6119V31.1086H16.8159V24.5795C16.8159 24.0904 16.4 23.6998 15.8804 23.6998C15.3606 23.6998 14.9446 24.0904 14.9446 24.5795V31.1086H11.7683V24.5795C11.7683 24.0904 11.3526 23.6998 10.8327 23.6998C10.3129 23.6998 9.89691 24.0904 9.89691 24.5795V31.1086H6.73169V24.6119C6.73169 22.4609 8.59148 20.7118 10.8786 20.7118C11.8142 20.7118 12.6691 21.0053 13.3621 21.4939C14.1622 20.9725 14.9901 20.7118 15.8456 20.7118ZM27.1082 23.7221C28.4018 23.7221 29.4531 24.7107 29.4531 25.9276C29.4531 27.1441 28.4018 28.1327 27.1082 28.1327C25.8144 28.1327 24.7631 27.1441 24.7631 25.9276C24.7631 24.7107 25.8144 23.7221 27.1082 23.7221Z" fill="white"/>
</svg>
