<svg width="97" height="30" viewBox="0 0 97 30" fill="none" xmlns="http://www.w3.org/2000/svg">
<path d="M21.1985 9.98239L18.4096 12.7713L18.2702 12.9107L17.3847 13.7962L16.7293 14.4585L15.8439 15.344L15.7044 15.4764L15.321 15.8669L15.1815 15.9994L13.8777 17.3031L13.7383 17.4356C13.3572 17.8161 12.9256 18.1422 12.4554 18.4047C12.231 18.5303 11.998 18.6398 11.7582 18.7324C11.2181 18.9417 10.649 19.0664 10.0709 19.102C9.7207 19.1333 9.36837 19.1333 9.01814 19.102C8.2534 19.0188 7.51342 18.7817 6.84283 18.4047C6.53916 18.2476 6.2578 18.0506 6.00617 17.8191L5.84581 17.6587L0.763117 12.5272L0.658534 12.4226C0.568005 12.3247 0.48851 12.2172 0.421481 12.1019C0.247077 11.8063 0.155555 11.4691 0.15654 11.1258C0.152898 11.0724 0.152898 11.0189 0.15654 10.9655C0.15654 10.8818 0.15654 10.7981 0.15654 10.7214V10.6308C0.224689 10.3773 0.343255 10.1402 0.505147 9.93359C0.547928 9.87921 0.594527 9.82795 0.64459 9.7802L0.735228 9.68956L6.20836 4.28615L9.48527 1.01621C9.83395 0.666948 10.3023 0.463274 10.7956 0.446445C11.2888 0.429616 11.77 0.600889 12.1417 0.92557L21.1985 9.98239Z" fill="#005BAA"/>
<path d="M11.3477 22.1403C10.9067 22.1387 10.4714 22.0412 10.0718 21.8545L9.03298 20.8226L8.77501 20.5716L8.73318 20.5228L8.2521 20.0417L5.83276 17.5945L5.99312 17.7548C6.24648 17.9893 6.53024 18.1887 6.83675 18.3475C7.50734 18.7244 8.24732 18.9616 9.01206 19.0447C9.36229 19.076 9.71463 19.076 10.0649 19.0447C10.6429 19.0091 11.2121 18.8845 11.7521 18.6752C11.9919 18.5825 12.2249 18.473 12.4493 18.3475C12.9195 18.085 13.3512 17.7588 13.7322 17.3784L13.8716 17.2459L15.1754 15.9421L15.3149 15.8096L15.6984 15.4192L15.8378 15.2867L16.7233 14.4012L17.3786 13.7389L18.285 12.9022L18.4245 12.7628L24.037 7.18508L26.3378 4.6263L26.4633 4.50777C26.8031 4.1693 27.2631 3.97925 27.7427 3.97925C28.2223 3.97925 28.6824 4.1693 29.0221 4.50777L30.2911 5.7767H30.3329C30.0481 5.76482 29.7639 5.81126 29.4978 5.91317C29.2316 6.01508 28.9891 6.17031 28.7851 6.36934L24.4972 10.5526L24.4554 10.6014L17.0091 18.0198L14.2551 20.718L14.0878 20.8923C13.713 21.2562 13.2822 21.5575 12.8119 21.7847C12.5503 21.9116 12.274 22.0053 11.9892 22.0636C11.8261 22.0978 11.6606 22.1188 11.4941 22.1264L11.3477 22.1403Z" fill="#ED1C24"/>
<path d="M37.1665 15.2038L37.0271 15.3432L30.9544 21.5066L24.5609 27.9837C24.3622 28.1843 24.1477 28.3685 23.9195 28.5345L23.8288 28.5973C22.7174 29.3915 21.364 29.7737 20.0012 29.6783C18.6385 29.5828 17.3516 29.0157 16.3617 28.0744L16.1943 27.9768L15.0997 26.8821L12.011 23.7935L10.9792 22.7546L10.8397 22.6082C11.0056 22.636 11.1735 22.65 11.3417 22.65H11.4881C11.6852 22.6417 11.8812 22.616 12.0738 22.5733C12.4004 22.5086 12.7169 22.4008 13.015 22.2526C13.5288 21.9976 13.9993 21.6635 14.4095 21.2626L14.5977 21.0604L16.9682 18.7317L25.1187 10.7137L25.1605 10.6579L29.1625 6.78144C29.4225 6.53223 29.7597 6.37914 30.1184 6.34745C30.4772 6.31576 30.836 6.40736 31.1356 6.60713L32.0699 7.54837L37.1596 12.645C37.205 12.6881 37.247 12.7347 37.2851 12.7845C37.5686 13.1307 37.7135 13.5699 37.6916 14.0169C37.6697 14.464 37.4826 14.8869 37.1665 15.2038Z" fill="#ED1C24"/>
<path d="M17.4878 8.4573C17.4157 8.52394 17.3211 8.56095 17.2228 8.56095C17.1246 8.56095 17.03 8.52394 16.9579 8.4573C16.3852 7.88094 15.7046 7.42301 14.9549 7.10969C14.2052 6.79636 13.4012 6.63375 12.5887 6.63116C10.9477 6.62593 9.37189 7.27278 8.20786 8.42941C7.04384 9.58604 6.38695 11.1577 6.38172 12.7987C6.37649 14.4396 7.02334 16.0154 8.17997 17.1795L10.0625 19.0759C10.0645 19.0898 10.0645 19.1038 10.0625 19.1177C9.72154 19.1492 9.37846 19.1492 9.03755 19.1177L7.64312 17.7233C6.34873 16.4197 5.62522 14.6552 5.63176 12.8181C5.6383 10.9811 6.37434 9.22181 7.67798 7.92742C8.98161 6.63303 10.7461 5.90952 12.5831 5.91606C14.4202 5.9226 16.1795 6.65864 17.4738 7.96228C17.537 8.02843 17.5734 8.11567 17.576 8.20711C17.5786 8.29855 17.5471 8.3877 17.4878 8.4573Z" fill="#009EDB"/>
<path d="M20.3755 10.8287L19.8526 11.3446L18.9392 10.4243C18.9048 10.39 18.8776 10.3492 18.859 10.3043C18.8404 10.2595 18.8308 10.2114 18.8308 10.1628C18.8308 10.1143 18.8404 10.0662 18.859 10.0213C18.8776 9.97644 18.9048 9.93568 18.9392 9.90136C18.9735 9.867 19.0143 9.83974 19.0591 9.82114C19.104 9.80254 19.1521 9.79297 19.2007 9.79297C19.2492 9.79297 19.2973 9.80254 19.3422 9.82114C19.387 9.83974 19.4278 9.867 19.4621 9.90136L20.3755 10.8287Z" fill="#009EDB"/>
<path d="M12.4809 18.3908C12.2568 18.5149 12.0237 18.6221 11.7837 18.7115L9.21793 16.1458C8.43996 15.3621 7.95992 14.3315 7.86064 13.2318C7.76136 12.132 8.04906 11.0321 8.6741 10.1218C8.73045 10.0416 8.81589 9.98646 8.91225 9.96823C9.0086 9.95 9.10827 9.97009 9.19004 10.0242C9.22996 10.0521 9.26399 10.0875 9.29017 10.1286C9.31635 10.1696 9.33416 10.2154 9.34258 10.2633C9.351 10.3113 9.34987 10.3604 9.33925 10.4079C9.32862 10.4554 9.30872 10.5004 9.28068 10.5402C8.75379 11.3085 8.51146 12.2365 8.59546 13.1644C8.67947 14.0922 9.08453 14.9616 9.74084 15.6228L12.4809 18.3908Z" fill="#009EDB"/>
<path d="M18.8115 12.3644L18.4281 12.7478L18.3026 12.8733L15.4231 9.96594C14.8961 9.43665 14.2316 9.06538 13.5046 8.89411C12.7777 8.72284 12.0173 8.75842 11.3095 8.99681C11.2622 9.01869 11.2108 9.03032 11.1588 9.03095C11.1067 9.03157 11.055 9.02118 11.0072 9.00045C10.9595 8.97971 10.9166 8.94911 10.8815 8.91064C10.8463 8.87218 10.8197 8.82672 10.8034 8.77725C10.7871 8.72778 10.7814 8.67542 10.7867 8.6236C10.7921 8.57178 10.8083 8.52168 10.8344 8.47657C10.8604 8.43147 10.8957 8.39238 10.938 8.36188C10.9802 8.33138 11.0284 8.31016 11.0794 8.2996C11.914 8.02598 12.8084 7.99064 13.662 8.19757C14.5156 8.4045 15.2945 8.84548 15.9111 9.47092L18.8115 12.3644Z" fill="#009EDB"/>
<path d="M17.2749 13.9124L16.752 14.4353L13.8586 11.521C13.51 11.2353 13.0675 11.0897 12.6174 11.1125C12.1673 11.1354 11.7419 11.3251 11.4241 11.6446C11.1063 11.9642 10.9189 12.3907 10.8985 12.8409C10.8781 13.2911 11.0261 13.7328 11.3137 14.0798L13.1753 15.9553C13.2446 16.0246 13.2836 16.1187 13.2836 16.2167C13.2836 16.3148 13.2446 16.4088 13.1753 16.4782C13.106 16.5475 13.0119 16.5865 12.9138 16.5865C12.8158 16.5865 12.7217 16.5475 12.6524 16.4782L10.756 14.6027C10.3135 14.1144 10.0764 13.4741 10.0942 12.8154C10.112 12.1566 10.3832 11.5302 10.8515 11.0664C11.3197 10.6027 11.9487 10.3375 12.6076 10.3261C13.2665 10.3146 13.9044 10.5578 14.3885 11.005L17.2749 13.9124Z" fill="#009EDB"/>
<path d="M15.7278 15.4555L15.3443 15.846L15.2188 15.9645L12.3114 13.0641C12.2421 12.9947 12.2031 12.9007 12.2031 12.8026C12.2031 12.7046 12.2421 12.6105 12.3114 12.5412C12.3808 12.4718 12.4748 12.4329 12.5729 12.4329C12.6709 12.4329 12.765 12.4718 12.8343 12.5412L15.7278 15.4555Z" fill="#009EDB"/>
<path fill-rule="evenodd" clip-rule="evenodd" d="M88.4804 15.2969L84.1716 9.11953L83.7394 8.72212H88.0063L90.8858 13.3865L91.1159 13.1982L92.8519 10.6116C93.0695 10.329 93.1667 9.97191 93.1223 9.61806C93.0779 9.2642 92.8955 8.9422 92.6149 8.72212H96.6239L91.9874 15.2899V20.0588L92.8032 21.0349H87.7971L88.4944 20.0728C88.4944 18.4901 88.4386 16.8795 88.4944 15.2969H88.4804ZM76.7881 8.72212C77.0644 9.00828 77.2363 9.37913 77.2762 9.77491C77.3036 10.0112 77.2725 10.2507 77.1855 10.4721L73.9853 19.759C73.7737 20.2256 73.4619 20.6398 73.072 20.9722H76.558C76.302 20.7623 76.129 20.4682 76.07 20.1425C76.007 19.9143 76.007 19.6734 76.07 19.4453L76.7672 17.2421H80.832L81.4664 18.9433C81.5304 19.1135 81.5703 19.2919 81.585 19.4732C81.6264 19.7626 81.5878 20.0579 81.4735 20.327C81.3592 20.5961 81.1736 20.8289 80.9366 21.0001H86.4097C85.8701 20.5658 85.4262 20.0246 85.1059 19.4104L81.1039 8.68726L76.7881 8.72212ZM80.2742 15.6943H77.3668L78.7612 11.6783L80.2603 15.6943H80.2742ZM65.6954 8.72909H71.7961C72.6812 8.73093 73.5296 9.08338 74.1555 9.70929C74.7814 10.3352 75.1339 11.1836 75.1357 12.0687V12.4801C75.1248 13.3568 74.7702 14.1942 74.1483 14.8122C73.5264 15.4302 72.6868 15.7795 71.81 15.7849L70.2831 15.8337C70.8549 15.5217 71.3149 15.0388 71.5987 14.4525C71.8825 13.8662 71.9759 13.2058 71.8658 12.5638C71.7473 11.5319 71.2174 10.5418 70.3319 10.5209H69.7741V19.6614C69.7716 19.8083 69.8155 19.9523 69.8996 20.0728C70.0668 20.3349 70.2533 20.5843 70.4574 20.8188L70.6178 21.014H65.8767L66.0789 20.7421C66.2274 20.5464 66.3515 20.3334 66.4484 20.1076C66.5097 19.9768 66.5406 19.8338 66.5391 19.6893V9.8516C66.5181 9.33567 66.0092 9.04284 65.6954 8.72909Z" fill="#005BAA"/>
<path fill-rule="evenodd" clip-rule="evenodd" d="M40.0015 8.66284H43.8292L47.0433 17.873L49.7694 10.2455C49.8192 10.0231 49.7791 9.7901 49.6579 9.59711C49.5115 9.28336 49.3511 8.98356 49.1977 8.67679H52.0563C51.889 9.29731 51.638 9.98058 51.4218 10.6081L47.7266 21.3591C46.6172 21.1816 45.5791 20.6988 44.7286 19.9647C44.1573 19.35 43.7434 18.606 43.5224 17.7964L40.4337 9.57619C40.311 9.26211 40.1665 8.95692 40.0015 8.66284ZM55.2844 12.9925V19.5743C55.2844 19.8392 55.3472 19.888 55.5145 20.1041L56.2675 21.0872H52.6629L53.2695 20.1599C53.4182 19.9797 53.4974 19.7521 53.4926 19.5185V10.3083L52.4816 8.66284H56.2187L62.2635 16.4786V10.2734C62.2701 10.0386 62.1936 9.80892 62.0474 9.625C61.8452 9.31125 61.6291 9.01145 61.4269 8.70467H64.9966L64.2994 9.65986C64.1321 9.86902 64.0693 9.91783 64.0693 10.1897V21.3591C63.339 21.3213 62.6255 21.1267 61.977 20.7887C61.3286 20.4506 60.7605 19.977 60.3113 19.4L55.2844 12.9925Z" fill="#ED1C24"/>
<path d="M43.8301 25.2373C43.8301 25.7253 44.0393 25.9833 44.5761 25.9833C44.7857 25.9833 44.9935 25.9455 45.1897 25.8717C45.2873 25.8299 45.3152 25.8717 45.3152 25.9624V26.0181C45.3152 26.1018 45.3152 26.1367 45.1897 26.1855C44.9967 26.2611 44.7903 26.2967 44.5831 26.29C43.8441 26.29 43.4955 25.9624 43.4955 25.2373V24.54C43.4748 24.393 43.4884 24.2431 43.5353 24.1022C43.5822 23.9613 43.661 23.8332 43.7657 23.7278C43.8704 23.6225 43.998 23.5428 44.1386 23.495C44.2792 23.4472 44.429 23.4326 44.5761 23.4524C44.7788 23.4537 44.9795 23.4915 45.1688 23.5639C45.2664 23.5988 45.2873 23.6406 45.2873 23.7243V23.7801C45.2873 23.8847 45.2455 23.9125 45.1548 23.8777C44.9676 23.7976 44.7658 23.7572 44.5622 23.7592C44.0463 23.7592 43.865 24.0102 43.865 24.554L43.8301 25.2373Z" fill="#009EDB"/>
<path d="M44.5775 26.2968C43.8315 26.2968 43.4829 25.9552 43.4829 25.237V24.5398C43.462 24.3921 43.4757 24.2415 43.5229 24.1C43.5702 23.9585 43.6497 23.8299 43.7552 23.7244C43.8607 23.6189 43.9893 23.5394 44.1308 23.4922C44.2723 23.4449 44.4228 23.4312 44.5706 23.4521C44.7732 23.4534 44.974 23.4912 45.1632 23.5637C45.2678 23.6055 45.2887 23.6474 45.2887 23.731V23.7868C45.2887 23.8426 45.2887 23.8775 45.2887 23.8914C45.2887 23.9053 45.2329 23.8914 45.1841 23.8914C44.9954 23.8171 44.7943 23.7792 44.5915 23.7798C44.0895 23.7798 43.8943 24.0239 43.8943 24.5677V25.2649C43.8943 25.7739 44.1174 26.004 44.6333 26.004C44.8408 26.0067 45.0469 25.9688 45.2399 25.8924C45.2957 25.8924 45.3236 25.8924 45.3445 25.8924C45.3654 25.8924 45.3445 25.9412 45.3445 25.997V26.0528C45.3445 26.1434 45.3445 26.1783 45.219 26.2201C45.0141 26.2955 44.7944 26.3218 44.5775 26.2968ZM44.5775 23.4591C44.4294 23.4376 44.2783 23.4512 44.1364 23.4988C43.9945 23.5465 43.8657 23.6268 43.7606 23.7333C43.6554 23.8398 43.5767 23.9696 43.5309 24.1121C43.4851 24.2546 43.4734 24.4059 43.4969 24.5537V25.251C43.4969 25.9482 43.8455 26.2968 44.5845 26.2968C44.7898 26.3084 44.9949 26.2726 45.1841 26.1922C45.2887 26.1504 45.3096 26.1155 45.3096 26.0318V25.9621C45.3096 25.9063 45.3096 25.8785 45.3096 25.8645C45.3096 25.8506 45.2678 25.8645 45.219 25.8645C45.0236 25.941 44.8152 25.9789 44.6054 25.9761C44.0895 25.9761 43.8524 25.746 43.8524 25.23V24.5328C43.8524 23.982 44.0825 23.738 44.5915 23.738C44.7968 23.7347 45.0007 23.7726 45.1911 23.8496C45.2329 23.8496 45.2608 23.8496 45.2817 23.8496C45.2887 23.8342 45.2922 23.8176 45.2922 23.8008C45.2922 23.7839 45.2887 23.7673 45.2817 23.752V23.6962C45.2817 23.6195 45.2817 23.5776 45.1562 23.5358C44.9678 23.4722 44.7693 23.4438 44.5706 23.4521L44.5775 23.4591Z" fill="#009EDB"/>
<path d="M45.7688 23.4505C45.7688 23.332 45.7688 23.311 45.9013 23.311H45.9501C46.0616 23.311 46.0825 23.311 46.0825 23.4505V24.4336C46.1634 24.3289 46.2704 24.2473 46.3928 24.1971C46.5152 24.147 46.6487 24.1299 46.7798 24.1477C47.2748 24.1477 47.5676 24.3569 47.5676 24.8449V26.0999C47.5676 26.2115 47.5676 26.2324 47.4351 26.2324H47.3794C47.2678 26.2324 47.2469 26.2324 47.2469 26.0999V24.8937C47.2469 24.5591 47.1005 24.4126 46.7031 24.4126C46.3057 24.4126 46.1174 24.573 46.1174 24.9634V26.1138C46.1174 26.2254 46.1174 26.2463 45.9849 26.2463H45.9361C45.8316 26.2463 45.8037 26.2463 45.8037 26.1138L45.7688 23.4505Z" fill="#009EDB"/>
<path d="M47.4002 26.2392H47.3444C47.2329 26.2392 47.212 26.2392 47.212 26.0998V24.8936C47.212 24.552 47.0516 24.4195 46.6681 24.4195C46.2847 24.4195 46.0894 24.5799 46.0894 24.9633V26.1137C46.0894 26.2253 46.0894 26.2532 45.95 26.2532H45.9012C45.7896 26.2532 45.7618 26.2532 45.7618 26.1137V23.4504C45.7618 23.3249 45.7617 23.304 45.9012 23.304H45.95C46.0616 23.304 46.0894 23.304 46.0894 23.4504V24.4195C46.1711 24.3161 46.2785 24.2359 46.4008 24.1869C46.5232 24.138 46.6562 24.122 46.7867 24.1406C47.3096 24.1406 47.5745 24.3916 47.5745 24.8936V26.1486C47.5675 26.2392 47.5187 26.2392 47.4002 26.2392ZM46.6681 24.3916C47.0586 24.3916 47.2189 24.538 47.2189 24.8797V26.0998C47.2189 26.2113 47.2189 26.2253 47.3444 26.2253H47.4002C47.5118 26.2253 47.5327 26.2253 47.5327 26.0998V24.8448C47.5327 24.3498 47.2677 24.1058 46.7518 24.1058C46.6204 24.0816 46.4848 24.0957 46.3612 24.1464C46.2376 24.1971 46.1312 24.2822 46.0546 24.3916V23.4504C46.0546 23.3388 46.0546 23.3179 45.9291 23.3179H45.8803C45.7757 23.3179 45.7478 23.3179 45.7478 23.4504V26.1486C45.7478 26.2601 45.7478 26.2741 45.8803 26.2741H45.9291C46.0406 26.2741 46.0546 26.2741 46.0546 26.1486V24.9633C46.0755 24.5729 46.2568 24.4056 46.6681 24.4056V24.3916Z" fill="#009EDB"/>
<path d="M47.9884 25.3981V25.0077C47.9884 24.415 48.3022 24.1152 48.9227 24.1152C49.5432 24.1152 49.85 24.422 49.85 25.0077V25.3981C49.85 25.9977 49.5432 26.2905 48.9227 26.2905C48.3022 26.2905 47.9884 25.9838 47.9884 25.3981ZM49.5293 25.0077C49.5293 24.5963 49.3828 24.415 48.9227 24.415C48.4625 24.415 48.3091 24.5963 48.3091 25.0077V25.3981C48.3091 25.8095 48.4625 25.9907 48.9227 25.9907C49.3828 25.9907 49.5293 25.8095 49.5293 25.3981V25.0077Z" fill="#009EDB"/>
<path d="M48.9197 26.3001C48.2783 26.3001 47.9854 26.0142 47.9854 25.4007V25.0102C47.9735 24.8844 47.9877 24.7575 48.0273 24.6375C48.0669 24.5175 48.131 24.407 48.2155 24.313C48.4116 24.1536 48.6605 24.0739 48.9127 24.0899C49.5472 24.0899 49.84 24.3758 49.84 24.9893V25.3798C49.8589 25.505 49.8481 25.6328 49.8086 25.7531C49.769 25.8734 49.7017 25.9827 49.6122 26.0722C49.5227 26.1618 49.4133 26.229 49.2931 26.2686C49.1728 26.3082 49.0449 26.319 48.9197 26.3001ZM48.9197 24.1248C48.6682 24.1047 48.4185 24.1821 48.2225 24.3409C48.1365 24.4339 48.0715 24.5443 48.0318 24.6645C47.9921 24.7848 47.9787 24.9122 47.9924 25.0381V25.4286C47.9924 26.0351 48.2852 26.314 48.9197 26.314C49.1715 26.3364 49.4219 26.2587 49.6169 26.0979C49.7029 26.0049 49.7679 25.8945 49.8076 25.7742C49.8473 25.654 49.8607 25.5266 49.847 25.4007V25.0102C49.84 24.4037 49.5472 24.1527 48.9197 24.1527V24.1248ZM48.9197 26.0003C48.4735 26.0003 48.2992 25.8329 48.2992 25.4007V25.0102C48.2992 24.578 48.4665 24.4106 48.9197 24.4106C49.3729 24.4106 49.5332 24.578 49.5332 25.0102V25.4007C49.5332 25.8399 49.3659 26.0003 48.9197 26.0003ZM48.9197 24.4246C48.4735 24.4246 48.3131 24.578 48.3131 25.0102V25.4007C48.3131 25.826 48.4805 25.9863 48.9197 25.9863C49.3589 25.9863 49.5263 25.8329 49.5263 25.4007V25.0102C49.5263 24.578 49.3589 24.4246 48.9197 24.4246Z" fill="#009EDB"/>
<path d="M51.3844 24.9943C51.3844 24.4365 51.6842 24.1158 52.3326 24.1158C52.4581 24.1117 52.5834 24.1306 52.7021 24.1715C52.8067 24.1715 52.8346 24.2343 52.8346 24.3319V24.3737C52.8346 24.4783 52.8346 24.5132 52.7021 24.4783C52.5863 24.4349 52.4633 24.4137 52.3396 24.4156C51.8655 24.4156 51.7051 24.6038 51.7051 25.0012V25.4126C51.7051 25.8379 51.8934 25.9913 52.4023 25.9913C52.5302 25.9959 52.6578 25.977 52.7788 25.9355C52.8764 25.9006 52.9043 25.9355 52.9043 26.0401V26.0819C52.9043 26.1726 52.9043 26.2074 52.7718 26.2353C52.6435 26.2762 52.5091 26.2951 52.3744 26.2911C51.726 26.2911 51.4193 26.0122 51.4193 25.4126L51.3844 24.9943Z" fill="#009EDB"/>
<path d="M52.3397 26.2962C52.0888 26.3108 51.8411 26.234 51.6425 26.08C51.5548 25.9879 51.4883 25.8778 51.4474 25.7574C51.4064 25.6371 51.3921 25.5092 51.4054 25.3828V24.9645C51.3978 24.8459 51.415 24.727 51.4558 24.6154C51.4966 24.5037 51.5602 24.4018 51.6425 24.3161C51.8346 24.1484 52.0851 24.0632 52.3397 24.079C52.465 24.0778 52.5898 24.0967 52.7092 24.1348C52.8208 24.1348 52.8417 24.2045 52.8417 24.3021V24.344C52.8417 24.4067 52.8417 24.4416 52.8417 24.4555C52.8256 24.4641 52.8076 24.4685 52.7894 24.4685C52.7712 24.4685 52.7532 24.4641 52.7371 24.4555C52.6198 24.4184 52.4975 24.3996 52.3745 24.3997C51.9214 24.3997 51.7401 24.5671 51.7401 24.9784V25.3898C51.7401 25.8081 51.9213 25.9615 52.4373 25.9615C52.5652 25.9667 52.6929 25.9478 52.8138 25.9057C52.8626 25.9057 52.8905 25.9057 52.9114 25.9057C52.9323 25.9057 52.9463 25.9545 52.9463 26.0173V26.0591C52.9463 26.1567 52.9463 26.1916 52.8068 26.2195C52.6569 26.2727 52.4987 26.2987 52.3397 26.2962ZM52.3397 24.1208C51.7192 24.1208 51.3984 24.4206 51.3984 24.9924V25.4107C51.3984 26.0103 51.6982 26.2822 52.3467 26.2822C52.4808 26.2851 52.6146 26.2687 52.7441 26.2334C52.8486 26.2334 52.8765 26.1707 52.8765 26.08V26.0382C52.8765 25.9824 52.8765 25.9475 52.8765 25.9336C52.8765 25.9197 52.8277 25.9336 52.7859 25.9336C52.6617 25.9717 52.5324 25.9905 52.4024 25.9894C51.9214 25.9894 51.7052 25.822 51.7052 25.4037V24.9924C51.7052 24.574 51.8935 24.3997 52.3467 24.3997C52.4703 24.3985 52.5932 24.4197 52.7092 24.4625C52.758 24.4625 52.7859 24.4625 52.8068 24.4625C52.8277 24.4625 52.8068 24.4137 52.8068 24.3579V24.3161C52.8068 24.2254 52.8068 24.1906 52.6813 24.1557C52.5661 24.1366 52.4486 24.1343 52.3327 24.1487L52.3397 24.1208Z" fill="#009EDB"/>
<path d="M53.4957 25.4917C53.4957 25.8264 53.6351 25.9867 54.0604 25.9867C54.4857 25.9867 54.6252 25.8334 54.6252 25.4917V24.2855C54.6252 24.181 54.6252 24.1531 54.7646 24.1531H54.8065C54.925 24.1531 54.9459 24.1531 54.9459 24.2855V25.4917C54.9459 26.0077 54.6879 26.2865 54.0604 26.2865C53.433 26.2865 53.1471 26.0216 53.1471 25.4917V24.2855C53.1471 24.181 53.1471 24.1531 53.2865 24.1531H53.3284C53.4469 24.1531 53.4678 24.1531 53.4678 24.2855L53.4957 25.4917Z" fill="#009EDB"/>
<path d="M54.0565 26.2963C53.4708 26.2963 53.171 26.0244 53.171 25.4945V24.2884C53.171 24.1838 53.171 24.1489 53.3035 24.1489H53.3523C53.4708 24.1489 53.4917 24.1489 53.4917 24.2884V25.4945C53.4917 25.8501 53.6521 25.9826 54.0565 25.9826C54.4609 25.9826 54.6142 25.8501 54.6142 25.4945V24.2884C54.6142 24.1838 54.6142 24.1489 54.7607 24.1489H54.8025C54.928 24.1489 54.9419 24.1489 54.9419 24.2884V25.4945C54.9518 25.602 54.9389 25.7103 54.9041 25.8124C54.8692 25.9146 54.8132 26.0082 54.7397 26.0872C54.5469 26.2414 54.3026 26.3162 54.0565 26.2963ZM53.3035 24.1489C53.2059 24.1489 53.178 24.1489 53.178 24.2744V25.4806C53.1685 25.5892 53.183 25.6985 53.2203 25.8009C53.2577 25.9033 53.317 25.9962 53.3941 26.0732C53.5922 26.2266 53.8424 26.2966 54.0913 26.2685C54.2151 26.2822 54.3404 26.2714 54.4601 26.2367C54.5797 26.202 54.6913 26.1441 54.7885 26.0663C54.8622 25.9888 54.9184 25.8965 54.9533 25.7954C54.9882 25.6944 55.001 25.587 54.9907 25.4806V24.2884C54.9907 24.1908 54.9907 24.1629 54.8583 24.1629H54.8164C54.7119 24.1629 54.684 24.1629 54.684 24.2884V25.4945C54.684 25.8571 54.5236 25.9965 54.1123 25.9965C53.7009 25.9965 53.5405 25.8571 53.5405 25.4945V24.2884C53.5405 24.1908 53.5405 24.1629 53.4081 24.1629L53.3035 24.1489Z" fill="#009EDB"/>
<path d="M55.368 25.3975V25.007C55.368 24.4144 55.6748 24.1146 56.3023 24.1146C56.9298 24.1146 57.2226 24.4214 57.2226 25.007V25.3975C57.2226 25.9971 56.9159 26.2899 56.3023 26.2899C55.6888 26.2899 55.368 25.9831 55.368 25.3975ZM56.9089 25.007C56.9089 24.5957 56.7625 24.4144 56.3023 24.4144C55.8421 24.4144 55.6818 24.5957 55.6818 25.007V25.3975C55.6818 25.8088 55.8421 25.9901 56.3023 25.9901C56.7625 25.9901 56.9089 25.8088 56.9089 25.3975V25.007ZM56.0025 23.5568C56.1001 23.4034 56.1629 23.3477 56.3023 23.3477C56.4418 23.3477 56.4975 23.3895 56.6021 23.5568L56.7625 23.8078C56.8113 23.8845 56.7625 23.9054 56.7067 23.9054C56.6709 23.9113 56.6341 23.9048 56.6025 23.8871C56.5708 23.8694 56.5461 23.8414 56.5324 23.8078L56.4348 23.6405C56.372 23.522 56.3023 23.522 56.2326 23.6405L56.142 23.8078C56.1273 23.8407 56.1024 23.8679 56.071 23.8855C56.0396 23.9031 56.0033 23.9101 55.9676 23.9054H55.9258C55.8421 23.9054 55.8282 23.9054 55.877 23.8078L56.0025 23.5568ZM56.1559 26.6664C56.1854 26.6377 56.2226 26.6184 56.2631 26.6108C56.3035 26.6031 56.3452 26.6076 56.3831 26.6236C56.421 26.6396 56.4533 26.6664 56.4761 26.7007C56.4988 26.735 56.5109 26.7752 56.5109 26.8163C56.5109 26.8574 56.4988 26.8976 56.4761 26.9319C56.4533 26.9662 56.421 26.993 56.3831 27.009C56.3452 27.025 56.3035 27.0295 56.2631 27.0219C56.2226 27.0143 56.1854 26.9949 56.1559 26.9662C56.1359 26.9467 56.1199 26.9234 56.1091 26.8977C56.0982 26.8719 56.0926 26.8443 56.0926 26.8163C56.0926 26.7884 56.0982 26.7607 56.1091 26.735C56.1199 26.7092 56.1359 26.6859 56.1559 26.6664Z" fill="#009EDB"/>
<path d="M56.3015 27.0298C56.2466 27.028 56.1944 27.0054 56.1556 26.9666C56.1167 26.9277 56.0941 26.8755 56.0924 26.8206C56.0914 26.7921 56.0965 26.7636 56.1073 26.7372C56.1181 26.7108 56.1344 26.6869 56.1551 26.6672C56.1734 26.6467 56.1961 26.6305 56.2214 26.6196C56.2466 26.6088 56.274 26.6036 56.3015 26.6045C56.3588 26.6045 56.4138 26.6273 56.4544 26.6678C56.4949 26.7083 56.5177 26.7633 56.5177 26.8206C56.5185 26.8481 56.5134 26.8755 56.5025 26.9008C56.4917 26.9261 56.4754 26.9487 56.4549 26.967C56.4347 26.9871 56.4108 27.0029 56.3845 27.0137C56.3582 27.0245 56.33 27.0299 56.3015 27.0298ZM56.3015 26.6115C56.2741 26.6115 56.247 26.617 56.2219 26.6278C56.1967 26.6386 56.174 26.6544 56.1551 26.6742C56.1183 26.7139 56.0983 26.7664 56.0993 26.8206C56.0996 26.8746 56.1194 26.9266 56.1551 26.967C56.195 27.0038 56.2473 27.0242 56.3015 27.0242C56.3558 27.0242 56.408 27.0038 56.4479 26.967C56.4678 26.9482 56.4836 26.9254 56.4943 26.9003C56.5051 26.8751 56.5107 26.848 56.5107 26.8206C56.5089 26.7657 56.4863 26.7135 56.4475 26.6747C56.4086 26.6358 56.3564 26.6132 56.3015 26.6115ZM56.3015 26.2977C55.6601 26.2977 55.3603 26.0119 55.3603 25.3983V25.0079C55.3492 24.8816 55.3646 24.7543 55.4054 24.6343C55.4462 24.5143 55.5116 24.404 55.5973 24.3107C55.7927 24.1499 56.0422 24.0701 56.2946 24.0875C56.929 24.0875 57.2219 24.3734 57.2219 24.987V25.3774C57.2407 25.5026 57.23 25.6305 57.1904 25.7508C57.1508 25.871 57.0835 25.9803 56.994 26.0699C56.9045 26.1594 56.7952 26.2267 56.6749 26.2662C56.5546 26.3058 56.4267 26.3166 56.3015 26.2977ZM56.3015 24.1224C56.0498 24.1008 55.7997 24.1784 55.6043 24.3385C55.5183 24.4315 55.4533 24.5419 55.4136 24.6622C55.3739 24.7825 55.3605 24.9098 55.3742 25.0358V25.4262C55.3742 26.0328 55.6671 26.3117 56.3015 26.3117C56.5531 26.3325 56.803 26.255 56.9987 26.0955C57.0847 26.0025 57.1498 25.8922 57.1895 25.7719C57.2291 25.6516 57.2426 25.5242 57.2288 25.3983V25.0079C57.2219 24.4013 56.929 24.1503 56.3015 24.1503V24.1224ZM56.3015 25.9979C55.8553 25.9979 55.681 25.8306 55.681 25.3983V25.0079C55.681 24.5756 55.8483 24.4083 56.3015 24.4083C56.7547 24.4083 56.9081 24.5756 56.9081 25.0079V25.3983C56.9081 25.8376 56.7477 25.9979 56.3015 25.9979ZM56.3015 24.4222C55.8553 24.4222 55.688 24.5756 55.688 25.0079V25.3983C55.688 25.8236 55.8623 25.984 56.3015 25.984C56.7408 25.984 56.9011 25.8306 56.9011 25.3983V25.0079C56.9011 24.5756 56.7408 24.4222 56.3015 24.4222ZM56.7059 23.9132C56.6693 23.9186 56.6319 23.9112 56.6001 23.8921C56.5683 23.873 56.5441 23.8435 56.5316 23.8087L56.434 23.6483C56.434 23.5855 56.3643 23.5577 56.3364 23.5577C56.3364 23.5577 56.2667 23.5577 56.2388 23.6483L56.1412 23.8087C56.1287 23.8435 56.1045 23.873 56.0727 23.8921C56.0409 23.9112 56.0035 23.9186 55.9669 23.9132H55.925C55.8762 23.9132 55.8553 23.9132 55.8483 23.9132C55.8414 23.9132 55.8483 23.8714 55.8483 23.8365L56.0087 23.5855C56.1133 23.4322 56.1691 23.3764 56.3155 23.3764C56.4619 23.3764 56.5107 23.4182 56.6153 23.5855L56.7756 23.8365C56.7756 23.8714 56.8175 23.8993 56.7756 23.9132C56.7338 23.9272 56.7547 23.9132 56.7059 23.9132ZM56.3015 23.5507C56.3015 23.5507 56.3712 23.5507 56.4061 23.6413L56.5037 23.8087C56.5161 23.8417 56.5395 23.8694 56.57 23.8872C56.6005 23.905 56.6362 23.9117 56.6711 23.9063C56.7199 23.9063 56.7408 23.9063 56.7477 23.9063C56.7547 23.9063 56.7477 23.9063 56.7477 23.8365L56.6292 23.5646C56.5316 23.3973 56.4689 23.3555 56.3364 23.3555C56.2039 23.3555 56.1412 23.4043 56.0366 23.5646L55.8762 23.8156C55.8762 23.8156 55.8762 23.8714 55.8762 23.8854C55.8762 23.8993 55.8762 23.8854 55.9459 23.8854H55.932C55.9666 23.8884 56.0012 23.8807 56.0312 23.8632C56.0612 23.8457 56.085 23.8194 56.0993 23.7877L56.1969 23.6204C56.2318 23.5786 56.2667 23.5507 56.3015 23.5507Z" fill="#009EDB"/>
<path d="M57.6354 24.9943C57.6354 24.4365 57.9352 24.1158 58.5836 24.1158C58.7091 24.1117 58.8344 24.1306 58.9531 24.1715C59.0577 24.1715 59.0856 24.2343 59.0856 24.3319V24.3737C59.0856 24.4783 59.0856 24.5132 58.9531 24.4783C58.8374 24.4343 58.7143 24.413 58.5906 24.4156C58.1164 24.4156 57.9561 24.6038 57.9561 25.0012V25.4126C57.9561 25.8379 58.1443 25.9913 58.6184 25.9913C58.7485 25.9953 58.8784 25.9765 59.0019 25.9355C59.0995 25.9006 59.1274 25.9355 59.1274 26.0401V26.0819C59.1274 26.1726 59.1274 26.2074 58.988 26.2353C58.862 26.2762 58.7299 26.2951 58.5975 26.2911C57.9421 26.2911 57.6354 26.0122 57.6354 25.4126V24.9943Z" fill="#009EDB"/>
<path d="M58.5963 26.2962C58.3451 26.3135 58.0964 26.2364 57.8991 26.08C57.8098 25.989 57.7422 25.8791 57.7012 25.7584C57.6601 25.6377 57.6468 25.5094 57.662 25.3828V24.9645C57.6535 24.8464 57.6696 24.7278 57.7092 24.6162C57.7488 24.5046 57.811 24.4024 57.8921 24.3161C58.0842 24.1484 58.3348 24.0632 58.5893 24.079C58.7169 24.0784 58.8439 24.0972 58.9658 24.1348C59.0704 24.1348 59.0913 24.2045 59.0913 24.3021V24.344C59.0913 24.4067 59.0913 24.4416 59.0913 24.4555C59.0752 24.4641 59.0572 24.4685 59.039 24.4685C59.0208 24.4685 59.0028 24.4641 58.9867 24.4555C58.8694 24.4184 58.7472 24.3996 58.6242 24.3997C58.1779 24.3997 57.9897 24.5671 57.9897 24.9784V25.3898C57.9897 25.8081 58.171 25.9615 58.652 25.9615C58.7799 25.9667 58.9077 25.9478 59.0285 25.9057C59.0451 25.8986 59.0629 25.895 59.0808 25.895C59.0988 25.895 59.1166 25.8986 59.1331 25.9057C59.1331 25.9057 59.1331 25.9545 59.1331 26.0173V26.0591C59.1331 26.1567 59.1331 26.1916 59.0007 26.2195C58.8704 26.2649 58.7341 26.2907 58.5963 26.2962ZM58.5963 24.1208C57.9827 24.1208 57.655 24.4206 57.655 24.9924V25.4107C57.655 26.0103 57.9548 26.2822 58.6102 26.2822C58.742 26.2845 58.8735 26.268 59.0007 26.2334C59.1052 26.2334 59.1331 26.1707 59.1331 26.08V26.0382C59.1331 25.9824 59.1331 25.9475 59.1331 25.9336C59.1331 25.9197 59.0843 25.9336 59.0425 25.9336C58.9183 25.9717 58.7889 25.9905 58.659 25.9894C58.1779 25.9894 57.9618 25.822 57.9618 25.4037V24.9924C57.9618 24.574 58.1501 24.3997 58.6032 24.3997C58.7292 24.3984 58.8543 24.4196 58.9728 24.4625C59.0216 24.4625 59.0495 24.4625 59.0634 24.4625C59.0773 24.4625 59.0634 24.4137 59.0634 24.3579V24.3161C59.0634 24.2254 59.0634 24.1906 58.9379 24.1557C58.8204 24.1355 58.7005 24.1332 58.5823 24.1487L58.5963 24.1208Z" fill="#009EDB"/>
<path d="M60.5269 26.0175C60.5269 25.9129 60.5269 25.885 60.6663 25.9059C60.8679 25.9649 61.0768 25.9954 61.2868 25.9966C61.6145 25.9966 61.747 25.9338 61.747 25.7525C61.747 25.5713 61.6773 25.5434 61.4751 25.4458L60.9591 25.2017C60.6872 25.0693 60.5617 24.9438 60.5617 24.651C60.5617 24.3581 60.8127 24.149 61.3147 24.149C61.4942 24.1479 61.6728 24.1738 61.8446 24.2256C61.9422 24.2256 61.9701 24.2884 61.9701 24.386V24.4278C61.9701 24.5324 61.9701 24.5533 61.8376 24.5255C61.6662 24.4717 61.4873 24.4458 61.3077 24.4488C60.994 24.4488 60.8755 24.5115 60.8755 24.6858C60.8755 24.8601 60.9522 24.895 61.0986 24.9647L61.6424 25.2087C61.9283 25.3482 62.0677 25.4737 62.0677 25.7804C62.0677 26.0872 61.8097 26.3243 61.2659 26.3243C61.0634 26.3267 60.8616 26.3009 60.6663 26.2476C60.5547 26.2127 60.5269 26.1779 60.5269 26.0872V26.0175Z" fill="#009EDB"/>
<path d="M61.2659 26.2961C61.0608 26.2967 60.8566 26.2685 60.6593 26.2125C60.5547 26.2125 60.5269 26.1497 60.5269 26.0521C60.5269 25.9963 60.5269 25.9615 60.5269 25.9475C60.5269 25.9336 60.5826 25.9475 60.6384 25.9475C60.8406 26.0031 61.0493 26.0313 61.2589 26.0312C61.5936 26.0312 61.7191 25.9684 61.7191 25.7941C61.7191 25.6198 61.6563 25.592 61.4472 25.4943L60.9243 25.2433C60.6663 25.1178 60.5269 24.9923 60.5269 24.6925C60.5269 24.3927 60.7709 24.1487 61.2868 24.1487C61.467 24.1453 61.6464 24.1736 61.8167 24.2324C61.9213 24.2324 61.9492 24.2951 61.9492 24.3927V24.4346C61.9621 24.4682 61.9621 24.5055 61.9492 24.5392C61.9134 24.5539 61.8734 24.5539 61.8376 24.5392C61.6694 24.4816 61.4925 24.4533 61.3147 24.4555C61.0079 24.4555 60.8894 24.5252 60.8894 24.6925C60.8928 24.7547 60.9154 24.8143 60.9541 24.863C60.9928 24.9117 61.0458 24.9472 61.1055 24.9645L61.6494 25.2155C61.9283 25.341 62.0747 25.4734 62.0747 25.7872C62.0747 26.1009 61.8097 26.2961 61.2659 26.2961ZM60.5687 25.9057H60.5269C60.5269 25.9057 60.5269 25.9545 60.5269 26.0033C60.5269 26.0939 60.5269 26.1288 60.6593 26.1567C60.8544 26.2112 61.0564 26.237 61.2589 26.2334C61.8097 26.2334 62.0538 26.073 62.0538 25.6965C62.0538 25.32 61.9073 25.2573 61.6354 25.1318L61.0916 24.8808C61.0287 24.8647 60.9725 24.829 60.9311 24.7788C60.8898 24.7287 60.8654 24.6668 60.8615 24.6019C60.8615 24.4276 60.987 24.3579 61.3008 24.3579C61.4808 24.3562 61.6599 24.3845 61.8307 24.4415C61.8795 24.4415 61.9073 24.4415 61.9283 24.4415C61.9348 24.4261 61.9381 24.4095 61.9381 24.3927C61.9381 24.376 61.9348 24.3594 61.9283 24.3439V24.3021C61.9283 24.2045 61.9283 24.1836 61.8028 24.1487C61.6317 24.0935 61.4526 24.0676 61.2729 24.072C60.7639 24.072 60.5269 24.2394 60.5269 24.6019C60.5269 24.9645 60.6593 25.0202 60.9173 25.1457L61.4332 25.3967C61.6424 25.4943 61.7121 25.571 61.7121 25.7035C61.7121 25.836 61.5866 25.9475 61.245 25.9475C61.0331 25.9472 60.8221 25.919 60.6175 25.8639L60.5687 25.9057Z" fill="#009EDB"/>
<path d="M62.4736 25.3962V25.0057C62.4736 24.4131 62.7874 24.1133 63.4079 24.1133C64.0284 24.1133 64.3352 24.4201 64.3352 25.0057V25.3962C64.3352 25.9958 64.0284 26.2886 63.4079 26.2886C62.7874 26.2886 62.4736 25.9818 62.4736 25.3962ZM64.0145 25.0057C64.0145 24.5944 63.875 24.4131 63.4079 24.4131C62.9408 24.4131 62.7944 24.5944 62.7944 25.0057V25.3962C62.7944 25.8075 62.9477 25.9888 63.4079 25.9888C63.8681 25.9888 64.0145 25.8075 64.0145 25.3962V25.0057ZM63.1081 23.5555C63.2127 23.4021 63.2685 23.3463 63.4079 23.3463C63.5473 23.3463 63.6101 23.3882 63.7077 23.5555L63.875 23.8065C63.9238 23.8832 63.875 23.9041 63.8193 23.9041C63.7834 23.91 63.7467 23.9035 63.7151 23.8858C63.6834 23.868 63.6587 23.8401 63.645 23.8065L63.5473 23.6392C63.4776 23.5206 63.4079 23.5206 63.3452 23.6392L63.2475 23.8065C63.2057 23.8902 63.1639 23.9041 63.0732 23.9041C62.9826 23.9041 62.9687 23.9041 63.0175 23.8065L63.1081 23.5555ZM64.1888 23.3045C64.1713 23.3366 64.1449 23.363 64.1127 23.3803C64.0805 23.3976 64.0439 23.4052 64.0075 23.4021H63.9657C63.8681 23.4021 63.8541 23.4021 63.9029 23.2975L64.0772 22.9559C64.0929 22.913 64.1231 22.877 64.1626 22.854C64.2021 22.8311 64.2483 22.8227 64.2934 22.8304H64.3352C64.4468 22.8304 64.4677 22.8304 64.4049 22.9489L64.1888 23.3045Z" fill="#009EDB"/>
<path d="M63.4107 26.299C62.7762 26.299 62.4764 26.0131 62.4764 25.3996V25.0091C62.4644 24.8833 62.4787 24.7564 62.5183 24.6364C62.5579 24.5164 62.622 24.4059 62.7065 24.3119C62.9032 24.1537 63.1517 24.0742 63.4037 24.0888C64.0382 24.0888 64.338 24.3747 64.338 24.9882V25.3787C64.3449 25.9992 64.0312 26.299 63.4107 26.299ZM63.4107 24.1237C63.1591 24.1036 62.9095 24.181 62.7135 24.3398C62.6275 24.4328 62.5624 24.5432 62.5227 24.6635C62.4831 24.7837 62.4696 24.9111 62.4834 25.037V25.4275C62.4834 26.0341 62.7762 26.3129 63.4107 26.3129C63.6624 26.3353 63.9129 26.2576 64.1079 26.0968C64.1939 26.0038 64.2589 25.8934 64.2986 25.7732C64.3383 25.6529 64.3517 25.5255 64.338 25.3996V25.0091C64.3031 24.4026 64.0382 24.1516 63.4107 24.1516V24.1237ZM63.4107 25.9992C62.9644 25.9992 62.7901 25.8319 62.7901 25.3996V25.0091C62.7901 24.5769 62.9575 24.4095 63.4107 24.4095C63.8639 24.4095 64.0242 24.5769 64.0242 25.0091V25.3996C64.0242 25.8388 63.8569 25.9992 63.4107 25.9992ZM63.4107 24.4235C62.9644 24.4235 62.8041 24.5769 62.8041 25.0091V25.3996C62.8041 25.8249 62.9714 25.9852 63.4107 25.9852C63.8499 25.9852 64.0172 25.8319 64.0172 25.3996V25.0091C64.0172 24.5769 63.8499 24.4235 63.4107 24.4235ZM63.822 23.9145C63.7844 23.9203 63.746 23.9131 63.713 23.8941C63.6801 23.875 63.6546 23.8454 63.6407 23.8099L63.5431 23.6496C63.4804 23.531 63.4176 23.531 63.3479 23.6496L63.2573 23.8099C63.2435 23.8454 63.218 23.875 63.185 23.8941C63.1521 23.9131 63.1136 23.9203 63.076 23.9145C63.0272 23.9145 62.9993 23.9145 62.9923 23.9145C62.9854 23.9145 62.9923 23.8727 62.9923 23.8378L63.1527 23.5868C63.2503 23.4334 63.3131 23.3777 63.4525 23.3777C63.5919 23.3777 63.6547 23.4195 63.7593 23.5868L63.9196 23.8378C63.9196 23.8727 63.9196 23.9006 63.9196 23.9145C63.9196 23.9285 63.8708 23.9145 63.822 23.9145ZM63.4107 23.552C63.4107 23.552 63.4804 23.552 63.5152 23.6426L63.6129 23.8099C63.6276 23.8428 63.6524 23.87 63.6838 23.8876C63.7152 23.9052 63.7515 23.9122 63.7872 23.9075C63.829 23.9075 63.8569 23.9075 63.8639 23.9075C63.8708 23.9075 63.8639 23.9075 63.8639 23.8378L63.7035 23.5868C63.5989 23.4195 63.5431 23.3777 63.4037 23.3777C63.2642 23.3777 63.2085 23.4265 63.1109 23.5868L62.9505 23.8378C62.9505 23.8378 62.9505 23.8936 62.9505 23.9075C62.9505 23.9215 62.9505 23.9075 63.0272 23.9075C63.0628 23.9111 63.0985 23.9036 63.1297 23.8862C63.1609 23.8687 63.186 23.8421 63.2015 23.8099L63.2921 23.6426C63.3409 23.5799 63.3758 23.552 63.4107 23.552ZM64.0103 23.4125H63.9684C63.9127 23.4125 63.8848 23.4125 63.8778 23.4125C63.8665 23.3834 63.8665 23.351 63.8778 23.3219L64.0591 22.9802C64.0639 22.9536 64.0742 22.9282 64.0894 22.9057C64.1046 22.8833 64.1243 22.8642 64.1473 22.8498C64.1702 22.8353 64.1959 22.8258 64.2228 22.8219C64.2496 22.818 64.277 22.8196 64.3031 22.8269H64.3449C64.4077 22.8269 64.4425 22.8269 64.4495 22.8269C64.4565 22.8269 64.4495 22.8757 64.4495 22.9314L64.2404 23.28C64.2222 23.3246 64.1897 23.3618 64.148 23.3858C64.1064 23.4098 64.0579 23.4192 64.0103 23.4125ZM64.2961 22.8338C64.2522 22.8279 64.2075 22.8371 64.1695 22.8599C64.1315 22.8827 64.1024 22.9178 64.087 22.9593L63.9057 23.301C63.9057 23.3498 63.9057 23.3707 63.9057 23.3846C63.9057 23.3986 63.9057 23.3846 63.9894 23.3846H64.0312C64.0681 23.3854 64.1045 23.3761 64.1364 23.3576C64.1684 23.3392 64.1947 23.3124 64.2125 23.28L64.4216 22.9314C64.4216 22.8826 64.4635 22.8547 64.4216 22.8408C64.3798 22.8269 64.3798 22.8408 64.324 22.8408L64.2961 22.8338Z" fill="#009EDB"/>
<path d="M65.0996 26.1162C65.0996 26.2278 65.0996 26.2487 64.9672 26.2487H64.9184C64.8138 26.2487 64.7789 26.2487 64.7789 26.1162V24.9101C64.7789 24.3802 65.0787 24.1152 65.6714 24.1152C66.264 24.1152 66.5499 24.3941 66.5499 24.9101V26.1162C66.5499 26.2278 66.5499 26.2487 66.4174 26.2487H66.3895C66.271 26.2487 66.2501 26.2487 66.2501 26.1162V24.9101C66.2501 24.5684 66.1176 24.415 65.6923 24.415C65.267 24.415 65.1206 24.5754 65.1206 24.9101L65.0996 26.1162Z" fill="#009EDB"/>
<path d="M66.3927 26.241C66.2742 26.241 66.2463 26.241 66.2463 26.1016V24.9093C66.2463 24.5537 66.0999 24.4213 65.6955 24.4213C65.2911 24.4213 65.1307 24.5537 65.1307 24.9093V26.1155C65.1307 26.2271 65.1307 26.2549 64.9913 26.2549H64.9425C64.8379 26.2549 64.803 26.2549 64.803 26.1155V24.9093C64.803 24.3794 65.1028 24.1075 65.6955 24.1075C65.8197 24.0947 65.9453 24.1066 66.065 24.1425C66.1846 24.1784 66.296 24.2376 66.3927 24.3167C66.4671 24.3953 66.5241 24.4887 66.5601 24.5908C66.5962 24.6929 66.6104 24.8014 66.6019 24.9093V26.1155C66.56 26.241 66.5391 26.241 66.3927 26.241ZM65.6955 24.4073C66.1068 24.4073 66.2602 24.5468 66.2602 24.9093V26.1155C66.2602 26.2271 66.2602 26.241 66.3927 26.241C66.5042 26.241 66.5252 26.241 66.5252 26.1155V24.9093C66.534 24.8024 66.5199 24.6949 66.4839 24.5939C66.4478 24.4929 66.3906 24.4007 66.316 24.3237C66.1367 24.1932 65.9165 24.1314 65.6955 24.1493C65.4465 24.1212 65.1964 24.1912 64.9983 24.3446C64.9207 24.4215 64.8606 24.5143 64.822 24.6165C64.7835 24.7188 64.7676 24.8282 64.7752 24.9372V26.1434C64.7752 26.2549 64.7752 26.2689 64.9076 26.2689H64.9983C65.1098 26.2689 65.1307 26.2689 65.1307 26.1434V24.9093C65.1028 24.5468 65.2632 24.4073 65.6955 24.4073Z" fill="#009EDB"/>
<path d="M68.7554 24.8988C68.7554 25.3869 68.4695 25.6379 67.8769 25.6379C67.7286 25.6216 67.5789 25.6216 67.4306 25.6379C67.3999 25.643 67.3721 25.6594 67.3528 25.6839C67.3334 25.7084 67.3239 25.7392 67.3261 25.7704C67.3261 25.8261 67.3261 25.868 67.4376 25.8889C67.5838 25.9002 67.7307 25.9002 67.8769 25.8889C68.1168 25.8722 68.357 25.9178 68.5741 26.0213C68.6465 26.0711 68.7042 26.1394 68.741 26.2192C68.7778 26.2989 68.7924 26.3872 68.7832 26.4745C68.7928 26.569 68.7787 26.6644 68.7422 26.752C68.7057 26.8396 68.6479 26.9168 68.5741 26.9765C68.3599 27.0895 68.1184 27.1402 67.8769 27.1229C67.6355 27.138 67.3946 27.0874 67.1796 26.9765C67.1111 26.9252 67.0567 26.8573 67.0213 26.7793C66.986 26.7014 66.9709 26.6157 66.9774 26.5303C66.9727 26.4397 66.9929 26.3494 67.0359 26.2695C67.079 26.1896 67.1432 26.123 67.2215 26.0771C67.1666 26.0551 67.1202 26.0162 67.0888 25.9661C67.0575 25.916 67.0429 25.8572 67.0472 25.7982C67.0472 25.61 67.1587 25.4984 67.3888 25.4636C67.2713 25.4133 67.1732 25.3264 67.1091 25.2159C67.045 25.1053 67.0184 24.977 67.0332 24.85V24.8431C67.0332 24.3829 67.3609 24.1458 67.9117 24.1458C68.0624 24.1426 68.212 24.1711 68.351 24.2295L68.595 24.0134C68.6647 23.9506 68.6996 23.9506 68.7693 24.0134C68.839 24.0761 68.839 24.111 68.7693 24.1807L68.581 24.3759C68.6423 24.4382 68.69 24.5125 68.7212 24.5941C68.7524 24.6756 68.7664 24.7628 68.7623 24.85L68.7554 24.8988ZM67.4655 26.1956C67.4017 26.2279 67.3486 26.2781 67.3127 26.34C67.2768 26.4018 67.2597 26.4728 67.2633 26.5443C67.2633 26.8231 67.4237 26.8929 67.8769 26.8929C68.33 26.8929 68.4904 26.8231 68.4904 26.5373C68.4904 26.2514 68.337 26.2235 67.8769 26.2235C67.7392 26.2244 67.6017 26.2151 67.4655 26.1956ZM68.4346 24.8431C68.4346 24.5433 68.2464 24.3968 67.8769 24.3968C67.5073 24.3968 67.3121 24.5433 67.3121 24.8431V24.8988C67.3121 25.1986 67.4516 25.352 67.8769 25.352C68.3022 25.352 68.4346 25.1986 68.4346 24.8988V24.8431Z" fill="#009EDB"/>
<path d="M67.8763 27.1794C67.6355 27.1977 67.3943 27.1494 67.1791 27.0399C67.1109 26.9866 67.0569 26.9175 67.0217 26.8385C66.9864 26.7595 66.971 26.673 66.9769 26.5867C66.9714 26.4976 66.9899 26.4085 67.0303 26.3289C67.0708 26.2492 67.1318 26.1818 67.207 26.1336C67.154 26.1096 67.1097 26.07 67.0798 26.0202C67.0499 25.9704 67.0359 25.9126 67.0396 25.8547C67.0396 25.6687 67.1512 25.5572 67.3743 25.52C67.2588 25.4677 67.1628 25.3802 67.1002 25.2699C67.0375 25.1597 67.0115 25.0324 67.0257 24.9065V24.8507C67.0228 24.7482 67.0425 24.6463 67.0835 24.5523C67.1245 24.4583 67.1857 24.3745 67.2627 24.3068C67.45 24.1692 67.679 24.1002 67.9112 24.1116C68.0618 24.1084 68.2115 24.1369 68.3504 24.1953L68.5944 23.9861C68.6641 23.9164 68.699 23.9164 68.7687 23.9861C68.8106 24.021 68.8245 24.0419 68.8245 24.0698C68.8245 24.0977 68.8245 24.1186 68.7687 24.1604L68.5805 24.3487C68.644 24.4096 68.6937 24.4834 68.7262 24.5652C68.7587 24.647 68.7732 24.7349 68.7687 24.8228V24.8786C68.7687 25.3666 68.4689 25.6176 67.8833 25.6176C67.735 25.6006 67.5853 25.6006 67.437 25.6176C67.4088 25.624 67.3836 25.6401 67.3658 25.6629C67.348 25.6858 67.3387 25.7141 67.3394 25.7431C67.3394 25.7989 67.3743 25.8337 67.444 25.8547C67.5902 25.8673 67.7371 25.8673 67.8833 25.8547C68.1348 25.8317 68.3878 25.8775 68.6153 25.9871C68.6876 26.0366 68.7448 26.1052 68.7805 26.1852C68.8162 26.2652 68.829 26.3535 68.8175 26.4403C68.8296 26.536 68.8167 26.6332 68.7801 26.7224C68.7434 26.8116 68.6843 26.8898 68.6084 26.9493C68.3907 27.0929 68.137 27.1727 67.8763 27.1794ZM67.8763 24.1256C67.3325 24.1256 67.0048 24.3975 67.0048 24.8228V24.8786C66.9905 25.0046 67.0166 25.1318 67.0793 25.2421C67.1419 25.3523 67.2379 25.4398 67.3534 25.4921C67.1233 25.527 67.0117 25.6316 67.0117 25.8198C67.0105 25.8782 67.0263 25.9357 67.0572 25.9853C67.0882 26.0348 67.133 26.0742 67.186 26.0987C67.1096 26.1444 67.0471 26.2101 67.0053 26.2887C66.9635 26.3674 66.944 26.456 66.949 26.5449C66.9435 26.6295 66.9583 26.7141 66.9923 26.7918C67.0263 26.8694 67.0784 26.9378 67.1442 26.9911C67.3607 27.0971 67.6009 27.1451 67.8414 27.1306C68.0822 27.1485 68.3233 27.1003 68.5386 26.9911C68.6125 26.9314 68.6702 26.8542 68.7067 26.7666C68.7433 26.6789 68.7574 26.5836 68.7478 26.4891C68.7579 26.4034 68.7444 26.3165 68.7088 26.2379C68.6732 26.1592 68.6167 26.0918 68.5456 26.0429C68.3285 25.9394 68.0883 25.8937 67.8484 25.9104C67.7001 25.9264 67.5505 25.9264 67.4022 25.9104C67.3738 25.9057 67.3479 25.8913 67.3289 25.8697C67.3098 25.8481 67.2988 25.8207 67.2976 25.7919C67.2954 25.7608 67.305 25.73 67.3243 25.7055C67.3436 25.681 67.3714 25.6646 67.4022 25.6594C67.5504 25.642 67.7002 25.642 67.8484 25.6594C68.095 25.6841 68.3423 25.6198 68.5456 25.4782C68.6198 25.4078 68.6777 25.322 68.715 25.2268C68.7524 25.1316 68.7683 25.0294 68.7618 24.9274V24.8507C68.7666 24.7638 68.7523 24.6769 68.7197 24.5961C68.6872 24.5154 68.6373 24.4428 68.5735 24.3835L68.7618 24.1883C68.8036 24.1883 68.8175 24.1256 68.8175 24.1047C68.8152 24.0892 68.8097 24.0743 68.8013 24.0611C68.7929 24.0479 68.7818 24.0366 68.7687 24.028H68.7339C68.6711 23.9652 68.6363 23.9652 68.5665 24.028L68.3225 24.2441C68.182 24.1823 68.0298 24.1514 67.8763 24.1535V24.1256ZM67.8763 26.9144C67.4022 26.9144 67.2627 26.8308 67.2627 26.5589C67.2551 26.4868 67.2706 26.4142 67.307 26.3516C67.3433 26.2889 67.3986 26.2394 67.4649 26.2102C67.6019 26.2189 67.7393 26.2189 67.8763 26.2102C68.3365 26.2102 68.4968 26.259 68.4968 26.531C68.4968 26.8029 68.3434 26.9423 67.8763 26.9423V26.9144ZM67.4649 26.2172C67.4018 26.2479 67.3493 26.2969 67.3145 26.3579C67.2797 26.4188 67.2641 26.4889 67.2697 26.5589C67.2697 26.8238 67.4092 26.9075 67.8763 26.9075C68.3434 26.9075 68.4829 26.8238 68.4829 26.5519C68.4829 26.28 68.3365 26.2381 67.8763 26.2381C67.7395 26.2491 67.6021 26.2514 67.4649 26.2451V26.2172ZM67.8763 25.3736C67.4719 25.3736 67.3115 25.2411 67.3115 24.9134V24.8507C67.3115 24.5439 67.4928 24.3975 67.8763 24.3975C68.2598 24.3975 68.441 24.5509 68.441 24.8507V24.9065C68.441 25.2341 68.2807 25.3666 67.8763 25.3666V25.3736ZM67.8763 24.4114C67.4998 24.4114 67.3185 24.5578 67.3185 24.8576V24.9134C67.3185 25.2341 67.4789 25.3666 67.8763 25.3666C68.2737 25.3666 68.4341 25.2341 68.4341 24.9134V24.8507C68.4341 24.5578 68.2458 24.4045 67.8763 24.4045V24.4114Z" fill="#009EDB"/>
<path d="M72.5078 23.7991C72.5078 23.8897 72.5078 23.9176 72.3892 23.9176H72.1382V25.4027C72.1382 25.9953 71.8245 26.2881 71.204 26.2881C70.5835 26.2881 70.2767 25.9953 70.2767 25.4027V25.0053C70.2641 24.8877 70.2783 24.7689 70.3183 24.6576C70.3583 24.5464 70.423 24.4457 70.5076 24.3631C70.5922 24.2805 70.6944 24.2182 70.8066 24.1809C70.9188 24.1436 71.038 24.1322 71.1552 24.1477C71.2886 24.1257 71.4256 24.143 71.5494 24.1974C71.6732 24.2519 71.7785 24.3412 71.8524 24.4545V23.9525H71.2737C71.1761 23.9525 71.1552 23.9525 71.1552 23.8339C71.1552 23.7433 71.1552 23.7154 71.2737 23.7154H71.8524V23.4505C71.8524 23.332 71.8524 23.311 71.9849 23.311H71.9709C72.0755 23.311 72.1104 23.311 72.1104 23.4505V23.6806H72.3614C72.452 23.6806 72.4799 23.6806 72.4799 23.7991H72.5078ZM70.5765 25.3957C70.5765 25.8071 70.7159 25.9883 71.1831 25.9883C71.6502 25.9883 71.7966 25.8071 71.7966 25.3957V25.0053C71.7966 24.5939 71.6502 24.4126 71.1831 24.4126C70.7159 24.4126 70.5765 24.5939 70.5765 25.0053V25.3957Z" fill="#009EDB"/>
<path d="M71.2019 26.295C70.9495 26.3132 70.6997 26.2332 70.5047 26.0719C70.4187 25.9789 70.3537 25.8685 70.314 25.7483C70.2743 25.628 70.2609 25.5006 70.2746 25.3747V24.9773C70.2617 24.852 70.2749 24.7253 70.3133 24.6053C70.3517 24.4853 70.4145 24.3746 70.4977 24.2801C70.5905 24.1937 70.7008 24.1284 70.8212 24.0887C70.9415 24.049 71.069 24.0358 71.195 24.05C71.3211 24.0355 71.4489 24.0558 71.5644 24.1086C71.6799 24.1615 71.7788 24.2448 71.8503 24.3498V23.8687H71.2717C71.174 23.8687 71.1462 23.8687 71.1462 23.7432C71.1462 23.6456 71.1462 23.6177 71.2717 23.6177H71.8434V23.4504C71.8434 23.3318 71.8434 23.304 71.9828 23.304H71.9689C72.0734 23.304 72.1083 23.304 72.1083 23.4504V23.6735H72.3593C72.4499 23.6735 72.4848 23.6735 72.4848 23.799C72.4848 23.8896 72.4848 23.9245 72.3593 23.9245H72.1083V25.4026C72.1362 25.9952 71.8225 26.295 71.2019 26.295ZM71.1531 24.1476C71.035 24.1379 70.9161 24.152 70.8035 24.1892C70.6909 24.2263 70.587 24.2857 70.4977 24.3637C70.4168 24.4595 70.3559 24.5706 70.3188 24.6903C70.2816 24.8101 70.269 24.9362 70.2816 25.0609V25.4583C70.2655 25.5838 70.2772 25.7113 70.3157 25.8317C70.3543 25.9522 70.4188 26.0627 70.5047 26.1556C70.6997 26.3164 70.9502 26.394 71.2019 26.3717C71.4535 26.3918 71.7031 26.3144 71.8991 26.1556C71.9855 26.0628 72.0508 25.9525 72.0905 25.8321C72.1302 25.7118 72.1434 25.5843 72.1292 25.4583V23.9105H72.3872C72.4709 23.9105 72.5057 23.9105 72.5057 23.799C72.5057 23.7153 72.5057 23.6874 72.3872 23.6874H72.1292V23.4504C72.1292 23.3318 72.1292 23.3179 71.9968 23.3179H71.9689C71.8573 23.3179 71.8434 23.3179 71.8434 23.4504V23.6874H71.2717C71.174 23.6874 71.1601 23.6874 71.1601 23.799C71.1601 23.8826 71.1601 23.9105 71.2717 23.9105H71.8573V24.4404C71.7811 24.3285 71.6739 24.2412 71.5488 24.1892C71.4238 24.1372 71.2863 24.1227 71.1531 24.1476ZM71.2019 26.0231C70.7557 26.0231 70.5884 25.8627 70.5884 25.4235V25.033C70.5884 24.6008 70.7627 24.4334 71.2019 24.4334C71.6412 24.4334 71.8225 24.6008 71.8225 25.033V25.4235C71.8225 25.8279 71.6481 25.9952 71.2019 25.9952V26.0231ZM71.2019 24.4474C70.7697 24.4474 70.5954 24.6077 70.5954 25.033V25.4235C70.5954 25.8558 70.7627 26.0091 71.2019 26.0091C71.6412 26.0091 71.8085 25.8558 71.8085 25.4235V25.033C71.8085 24.5729 71.6481 24.4195 71.2019 24.4195V24.4474Z" fill="#009EDB"/>
<path d="M72.5635 25.3981V25.0077C72.5635 24.415 72.8703 24.1152 73.4977 24.1152C73.9649 24.1152 74.2368 24.2756 74.3553 24.5754C74.4181 24.5754 74.4808 24.4638 74.4808 24.2407C74.4808 24.178 74.4808 24.1571 74.5784 24.1571H74.6481C74.7248 24.1571 74.7388 24.1571 74.7388 24.2407C74.7388 24.5824 74.6063 24.7497 74.4041 24.8055C74.4115 24.8727 74.4115 24.9405 74.4041 25.0077V25.3981C74.4041 25.9977 74.0973 26.2905 73.4838 26.2905C72.8702 26.2905 72.5635 25.9838 72.5635 25.3981ZM74.1043 25.0077C74.1043 24.5963 73.9579 24.415 73.4977 24.415C73.0376 24.415 72.8772 24.5963 72.8772 25.0077V25.3981C72.8772 25.8095 73.0376 25.9907 73.4977 25.9907C73.9579 25.9907 74.1043 25.8095 74.1043 25.3981V25.0077Z" fill="#009EDB"/>
<path d="M73.4983 26.3004C72.8569 26.3004 72.5571 26.0146 72.5571 25.401V25.0106C72.546 24.8843 72.5614 24.757 72.6022 24.637C72.643 24.517 72.7084 24.4068 72.7941 24.3134C72.9895 24.1526 73.239 24.0728 73.4913 24.0902C73.9515 24.0902 74.1885 24.2367 74.3489 24.5504C74.4326 24.5155 74.4674 24.404 74.4674 24.2227C74.4674 24.153 74.4674 24.1321 74.572 24.1321H74.6417C74.7184 24.1321 74.7393 24.1321 74.7393 24.2227C74.7393 24.5295 74.6278 24.7247 74.4047 24.7944C74.4084 24.8594 74.4084 24.9246 74.4047 24.9897V25.3801C74.423 25.504 74.4124 25.6304 74.3736 25.7495C74.3347 25.8685 74.2688 25.9769 74.1809 26.0662C74.093 26.1554 73.9856 26.223 73.8672 26.2636C73.7487 26.3043 73.6224 26.3169 73.4983 26.3004ZM73.4983 24.1251C73.2466 24.1035 72.9964 24.1811 72.8011 24.3412C72.7151 24.4342 72.6501 24.5446 72.6104 24.6649C72.5707 24.7852 72.5573 24.9125 72.571 25.0385V25.4289C72.571 26.0355 72.8638 26.3144 73.4983 26.3144C73.7499 26.3352 73.9998 26.2577 74.1955 26.0982C74.2815 26.0052 74.3465 25.8949 74.3862 25.7746C74.4259 25.6543 74.4393 25.5269 74.4256 25.401V25.0106C74.4295 24.9432 74.4295 24.8757 74.4256 24.8084C74.6487 24.7387 74.7603 24.5504 74.7603 24.2436C74.7603 24.1809 74.7603 24.1669 74.6696 24.1669H74.5999C74.5302 24.1669 74.5093 24.1669 74.5093 24.2436C74.5093 24.4319 74.4674 24.5434 74.3768 24.5853C74.2234 24.2715 73.9585 24.153 73.4983 24.153V24.1251ZM73.4983 26.0006C73.0521 26.0006 72.8778 25.8333 72.8778 25.401V25.0106C72.8778 24.5783 73.0451 24.411 73.4983 24.411C73.9515 24.411 74.1049 24.5783 74.1049 25.0106V25.401C74.1049 25.8402 73.9445 26.0006 73.4983 26.0006ZM73.4983 24.4249C73.0521 24.4249 72.8848 24.5783 72.8848 25.0106V25.401C72.8848 25.8263 73.0591 25.9867 73.4983 25.9867C73.9376 25.9867 74.0979 25.8333 74.0979 25.401V25.0106C74.0979 24.5783 73.9376 24.4249 73.4983 24.4249Z" fill="#009EDB"/>
<path d="M75.1908 26.1162C75.1908 26.2278 75.1908 26.2487 75.0514 26.2487H75.0026C74.898 26.2487 74.8701 26.2487 74.8701 26.1162V24.9101C74.8701 24.3802 75.1699 24.1152 75.7556 24.1152C76.3412 24.1152 76.641 24.3941 76.641 24.9101V26.1162C76.641 26.2278 76.641 26.2487 76.5016 26.2487H76.4528C76.3343 26.2487 76.3134 26.2487 76.3134 26.1162V24.9101C76.3134 24.5684 76.1879 24.415 75.7556 24.415C75.3233 24.415 75.1908 24.5754 75.1908 24.9101V26.1162Z" fill="#009EDB"/>
<path d="M76.5031 26.241H76.4543C76.3357 26.241 76.3148 26.241 76.3148 26.1016V24.9093C76.3148 24.5537 76.1614 24.4213 75.757 24.4213C75.3527 24.4213 75.1923 24.5537 75.1923 24.9093V26.1155C75.1923 26.2271 75.1923 26.2549 75.0529 26.2549H75.0041C74.8995 26.2549 74.8646 26.2549 74.8646 26.1155V24.9093C74.8646 24.3794 75.1644 24.1075 75.757 24.1075C75.8813 24.0947 76.0069 24.1066 76.1265 24.1425C76.2462 24.1784 76.3576 24.2376 76.4543 24.3167C76.5298 24.3946 76.5875 24.4878 76.6236 24.5901C76.6597 24.6924 76.6733 24.8013 76.6634 24.9093V26.1155C76.6425 26.241 76.6216 26.241 76.5031 26.241ZM75.757 24.3934C76.1684 24.3934 76.3218 24.5328 76.3218 24.8954V26.1016C76.3218 26.2131 76.3218 26.2271 76.4543 26.2271H76.5031C76.6146 26.2271 76.6355 26.2271 76.6355 26.1016V24.9093C76.644 24.803 76.6304 24.6961 76.5956 24.5954C76.5608 24.4946 76.5056 24.4021 76.4334 24.3237C76.3361 24.2458 76.2245 24.1879 76.1049 24.1532C75.9852 24.1185 75.8599 24.1077 75.7361 24.1215C75.4872 24.0933 75.237 24.1633 75.0389 24.3167C74.9613 24.3936 74.9012 24.4864 74.8627 24.5887C74.8242 24.6909 74.8082 24.8003 74.8158 24.9093V26.1155C74.8158 26.2271 74.8158 26.241 74.9483 26.241H74.9971C75.1086 26.241 75.1296 26.241 75.1296 26.1155V24.9093C75.1853 24.5468 75.3457 24.4073 75.757 24.4073V24.3934Z" fill="#009EDB"/>
<path d="M79.9736 24.8988C79.9736 25.3869 79.6877 25.6379 79.102 25.6379C78.9514 25.6215 78.7995 25.6215 78.6488 25.6379C78.6181 25.643 78.5903 25.6594 78.5709 25.6839C78.5516 25.7084 78.5421 25.7392 78.5443 25.7704C78.5443 25.8261 78.5442 25.868 78.6558 25.8889C78.8043 25.9004 78.9535 25.9004 79.102 25.8889C79.342 25.8722 79.5822 25.9178 79.7992 26.0213C79.8699 26.0724 79.9257 26.1412 79.9612 26.2208C79.9967 26.3004 80.0106 26.3879 80.0014 26.4745C80.011 26.569 79.9969 26.6644 79.9604 26.752C79.9238 26.8396 79.8661 26.9168 79.7923 26.9765C79.5784 27.0902 79.3366 27.1409 79.0951 27.1229C78.8398 27.1451 78.5835 27.0943 78.356 26.9765C78.2897 26.9236 78.2373 26.8553 78.2033 26.7775C78.1693 26.6998 78.1547 26.6149 78.1608 26.5303C78.1553 26.4404 78.1745 26.3506 78.2162 26.2707C78.258 26.1909 78.3208 26.1239 78.3978 26.0771C78.343 26.0551 78.2965 26.0162 78.2652 25.9661C78.2339 25.916 78.2193 25.8572 78.2235 25.7982C78.2235 25.61 78.3351 25.4984 78.5652 25.4636C78.4477 25.4133 78.3496 25.3264 78.2855 25.2159C78.2214 25.1053 78.1948 24.977 78.2096 24.85V24.8431C78.2096 24.3829 78.5373 24.1458 79.0951 24.1458C79.2434 24.1432 79.3907 24.1717 79.5273 24.2295L79.7714 24.0134C79.8411 23.9506 79.8759 23.9506 79.9457 24.0134C80.0154 24.0761 80.0154 24.111 79.9457 24.1807L79.7574 24.3759C79.8186 24.4382 79.8663 24.5125 79.8975 24.5941C79.9287 24.6756 79.9427 24.7628 79.9387 24.85L79.9736 24.8988ZM78.6837 26.1957C78.6199 26.228 78.5668 26.2781 78.5309 26.34C78.495 26.4018 78.4778 26.4728 78.4815 26.5443C78.4815 26.8231 78.6419 26.8929 79.102 26.8929C79.5622 26.8929 79.7086 26.8231 79.7086 26.5373C79.7086 26.2514 79.5552 26.2235 79.102 26.2235C78.9621 26.2248 78.8222 26.2154 78.6837 26.1957ZM79.6389 24.8431C79.6389 24.5433 79.4576 24.3968 79.0881 24.3968C78.7186 24.3968 78.5233 24.5433 78.5233 24.8431V24.8988C78.5233 25.1986 78.6558 25.352 79.0881 25.352C79.5204 25.352 79.6389 25.1986 79.6389 24.8988V24.8431Z" fill="#009EDB"/>
<path d="M79.1019 27.1794C78.8473 27.2041 78.5909 27.1557 78.3628 27.0399C78.2947 26.9866 78.2406 26.9175 78.2054 26.8385C78.1702 26.7595 78.1548 26.673 78.1606 26.5867C78.1551 26.4968 78.1743 26.407 78.2161 26.3272C78.2579 26.2473 78.3207 26.1804 78.3977 26.1335C78.3428 26.1115 78.2964 26.0727 78.2651 26.0225C78.2337 25.9724 78.2191 25.9136 78.2234 25.8547C78.2234 25.6687 78.3349 25.5572 78.5581 25.52C78.4425 25.4677 78.3466 25.3802 78.2839 25.2699C78.2213 25.1597 78.1952 25.0324 78.2094 24.9065V24.8507C78.2065 24.7482 78.2263 24.6463 78.2672 24.5523C78.3082 24.4583 78.3694 24.3745 78.4465 24.3068C78.6359 24.1681 78.8675 24.0992 79.1019 24.1116C79.2502 24.1089 79.3975 24.1375 79.5342 24.1953L79.7782 23.9861C79.8479 23.9164 79.8828 23.9164 79.9525 23.9861C79.9943 24.021 80.0083 24.0419 80.0083 24.0698C80.0083 24.0977 80.0083 24.1186 79.9525 24.1604L79.7712 24.3487C79.8324 24.411 79.8801 24.4852 79.9113 24.5668C79.9425 24.6484 79.9565 24.7355 79.9525 24.8228V24.8786C79.9525 25.3666 79.6527 25.6176 79.074 25.6176C78.9234 25.6003 78.7714 25.6003 78.6208 25.6176C78.5925 25.624 78.5674 25.6401 78.5496 25.6629C78.5318 25.6858 78.5225 25.7141 78.5232 25.7431C78.5232 25.7989 78.5232 25.8337 78.6278 25.8547C78.7762 25.8675 78.9255 25.8675 79.074 25.8547C79.3139 25.8379 79.5541 25.8836 79.7712 25.9871C79.8442 26.0363 79.9023 26.1046 79.9392 26.1845C79.9761 26.2644 79.9903 26.3529 79.9804 26.4403C79.991 26.5366 79.9767 26.6339 79.9389 26.7231C79.901 26.8122 79.8409 26.8901 79.7642 26.9493C79.5667 27.0811 79.3387 27.1603 79.1019 27.1794ZM79.1019 24.1256C78.5511 24.1256 78.2234 24.3975 78.2234 24.8228V24.8786C78.2092 25.0046 78.2352 25.1318 78.2979 25.2421C78.3605 25.3523 78.4565 25.4398 78.572 25.4921C78.3419 25.527 78.2373 25.6316 78.2373 25.8198C78.2345 25.8776 78.2489 25.935 78.2787 25.9846C78.3085 26.0342 78.3523 26.0739 78.4047 26.0987C78.3282 26.1444 78.2657 26.2101 78.2239 26.2887C78.1821 26.3674 78.1626 26.456 78.1676 26.5449C78.1617 26.6302 78.1771 26.7157 78.2124 26.7935C78.2477 26.8714 78.3018 26.9393 78.3698 26.9911C78.8353 27.1773 79.3546 27.1773 79.82 26.9911C79.8931 26.9311 79.9498 26.8536 79.9852 26.7659C80.0205 26.6782 80.0332 26.583 80.0222 26.4891C80.0323 26.4034 80.0189 26.3165 79.9832 26.2379C79.9476 26.1592 79.8912 26.0918 79.82 26.0429C79.6038 25.9368 79.3629 25.8911 79.1228 25.9104C78.9745 25.927 78.8249 25.927 78.6766 25.9104C78.5999 25.9104 78.565 25.8477 78.565 25.7919C78.5629 25.7608 78.5724 25.73 78.5917 25.7055C78.6111 25.681 78.6388 25.6646 78.6696 25.6594C78.8202 25.6418 78.9723 25.6418 79.1228 25.6594C79.3555 25.6748 79.5865 25.6109 79.7782 25.4782C79.8524 25.4078 79.9102 25.322 79.9476 25.2268C79.9849 25.1316 80.0009 25.0294 79.9943 24.9274V24.8507C79.9992 24.7638 79.9848 24.6769 79.9523 24.5961C79.9198 24.5154 79.8698 24.4428 79.8061 24.3835L80.0013 24.1883C80.0275 24.1676 80.045 24.1377 80.0501 24.1047C80.0478 24.0892 80.0423 24.0743 80.0339 24.0611C80.0255 24.0479 80.0144 24.0366 80.0013 24.028C79.9316 23.9582 79.9037 23.9652 79.827 24.028L79.583 24.2441C79.4319 24.1768 79.2671 24.1457 79.1019 24.1535V24.1256ZM79.1019 26.9144C78.6208 26.9144 78.4814 26.8308 78.4814 26.5588C78.4737 26.4868 78.4892 26.4142 78.5256 26.3516C78.5619 26.2889 78.6172 26.2394 78.6836 26.2102C78.8229 26.2191 78.9626 26.2191 79.1019 26.2102C79.5551 26.2102 79.7154 26.259 79.7154 26.531C79.7154 26.8029 79.5063 26.9423 79.1019 26.9423V26.9144ZM78.6836 26.2172C78.6204 26.2479 78.568 26.2969 78.5331 26.3579C78.4983 26.4188 78.4827 26.4889 78.4883 26.5588C78.4883 26.8238 78.6278 26.9075 79.1019 26.9075C79.576 26.9075 79.7015 26.8238 79.7015 26.5519C79.7015 26.28 79.5551 26.2381 79.1019 26.2381C78.9627 26.2493 78.823 26.2516 78.6836 26.2451V26.2172ZM79.1019 25.3736C78.6975 25.3736 78.5302 25.2411 78.5302 24.9134V24.8507C78.5302 24.5439 78.7184 24.3975 79.1019 24.3975C79.4854 24.3975 79.6597 24.5509 79.6597 24.8507V24.9065C79.6387 25.2341 79.4993 25.3666 79.1019 25.3666V25.3736ZM79.1019 24.4114C78.7184 24.4114 78.5371 24.5578 78.5371 24.8576V24.9134C78.5371 25.2341 78.6975 25.3666 79.1019 25.3666C79.5063 25.3666 79.6527 25.2341 79.6527 24.9134V24.8507C79.6387 24.5578 79.4644 24.4045 79.1019 24.4045V24.4114Z" fill="#009EDB"/>
<path d="M80.8212 23.5021C80.8221 23.5293 80.8176 23.5563 80.8078 23.5817C80.7981 23.607 80.7833 23.6301 80.7645 23.6496C80.7456 23.6692 80.723 23.6847 80.698 23.6953C80.673 23.7059 80.6461 23.7113 80.619 23.7113C80.5909 23.7122 80.563 23.7075 80.5368 23.6974C80.5106 23.6873 80.4867 23.6721 80.4665 23.6526C80.4464 23.633 80.4303 23.6097 80.4194 23.5838C80.4085 23.558 80.4028 23.5302 80.4028 23.5021C80.4046 23.446 80.4282 23.3928 80.4686 23.3538C80.5089 23.3148 80.5628 23.2929 80.619 23.293C80.6732 23.2948 80.7246 23.3176 80.7624 23.3566C80.8001 23.3957 80.8212 23.4478 80.8212 23.5021ZM80.4586 24.29C80.4586 24.1854 80.4586 24.1575 80.5911 24.1575H80.6399C80.7445 24.1575 80.7723 24.1575 80.7723 24.29V26.1167C80.7723 26.2282 80.7724 26.2492 80.6399 26.2492H80.5911C80.4726 26.2492 80.4586 26.2492 80.4586 26.1167V24.29Z" fill="#009EDB"/>
<path d="M80.6425 26.2412H80.5937C80.4752 26.2412 80.4542 26.2412 80.4542 26.1018V24.289C80.4542 24.1845 80.4542 24.1496 80.5937 24.1496H80.6425C80.7471 24.1496 80.7819 24.1496 80.7819 24.289V26.1157C80.7819 26.2412 80.7471 26.2412 80.6425 26.2412ZM80.5937 24.1496C80.4821 24.1496 80.4612 24.1496 80.4612 24.2751V26.1018C80.4612 26.2134 80.4612 26.2273 80.5937 26.2273H80.6425C80.7401 26.2273 80.768 26.2273 80.768 26.1018V24.289C80.768 24.1914 80.768 24.1635 80.6425 24.1635L80.5937 24.1496ZM80.5937 23.6964C80.5382 23.6964 80.485 23.6744 80.4458 23.6351C80.4066 23.5959 80.3845 23.5427 80.3845 23.4872C80.3845 23.4318 80.4066 23.3786 80.4458 23.3393C80.485 23.3001 80.5382 23.2781 80.5937 23.2781C80.6492 23.2781 80.7024 23.3001 80.7416 23.3393C80.7808 23.3786 80.8028 23.4318 80.8028 23.4872C80.8028 23.5427 80.7808 23.5959 80.7416 23.6351C80.7024 23.6744 80.6492 23.6964 80.5937 23.6964ZM80.5937 23.285C80.5671 23.285 80.5408 23.2903 80.5163 23.3004C80.4918 23.3106 80.4695 23.3255 80.4507 23.3443C80.4319 23.363 80.417 23.3853 80.4069 23.4099C80.3967 23.4344 80.3915 23.4607 80.3915 23.4872C80.3915 23.5138 80.3967 23.5401 80.4069 23.5646C80.417 23.5891 80.4319 23.6114 80.4507 23.6302C80.4695 23.649 80.4918 23.6639 80.5163 23.674C80.5408 23.6842 80.5671 23.6894 80.5937 23.6894C80.6473 23.6894 80.6987 23.6681 80.7367 23.6302C80.7746 23.5923 80.7959 23.5409 80.7959 23.4872C80.7959 23.4336 80.7746 23.3822 80.7367 23.3443C80.6987 23.3064 80.6473 23.285 80.5937 23.285Z" fill="#009EDB"/>
<path d="M82.9153 25.6201C82.9153 26.0942 82.6434 26.3173 82.0298 26.3173C81.5418 26.3173 81.235 26.122 81.235 25.6828C81.235 25.2436 81.5208 25.0623 82.0995 25.0623H82.6015V24.7764C82.6015 24.4906 82.3993 24.393 82.0437 24.393C81.8867 24.392 81.7301 24.4083 81.5766 24.4418C81.472 24.4418 81.4372 24.4418 81.4372 24.3372V24.3023C81.4372 24.2047 81.4372 24.1768 81.5696 24.1559C81.7213 24.1269 81.8754 24.1129 82.0298 24.1141C82.6224 24.1141 82.9153 24.3372 82.9153 24.7764V25.6201ZM82.6015 25.2854H82.0995C81.723 25.2854 81.5487 25.39 81.5487 25.6549C81.5487 25.9199 81.7091 26.0175 82.0298 26.0175C82.3505 26.0175 82.6015 25.9268 82.6015 25.6061V25.2854ZM82.0995 23.891C82.0228 23.891 82.0159 23.891 82.0019 23.8073C81.988 23.7236 82.0647 23.64 82.1902 23.5075C82.2199 23.4828 82.2397 23.4481 82.2459 23.4099C82.2459 23.3332 82.2459 23.2983 82.1692 23.2983C82.1074 23.2835 82.0429 23.2835 81.981 23.2983C81.9322 23.2983 81.8973 23.2983 81.8694 23.2565V23.2216C81.8694 23.1589 81.8694 23.131 81.9322 23.1101C82.0113 23.0757 82.097 23.0591 82.1832 23.0613C82.2247 23.0578 82.2664 23.0637 82.3053 23.0784C82.3442 23.0932 82.3793 23.1164 82.4081 23.1465C82.4368 23.1766 82.4584 23.2127 82.4714 23.2523C82.4844 23.2918 82.4883 23.3338 82.483 23.375C82.483 23.5563 82.232 23.633 82.225 23.7724C82.2222 23.7936 82.2124 23.8133 82.1973 23.8284C82.1822 23.8435 82.1625 23.8532 82.1414 23.8561L82.0995 23.891Z" fill="#009EDB"/>
<path d="M82.0325 26.2946C81.5096 26.2946 81.2307 26.0715 81.2307 25.6532C81.2307 25.2348 81.4957 25.0257 82.1022 25.0257H82.5972V24.7747C82.5972 24.5097 82.4299 24.3982 82.0464 24.3982C81.8897 24.396 81.7332 24.41 81.5793 24.44C81.5235 24.44 81.4887 24.44 81.4678 24.44C81.4469 24.44 81.4678 24.3912 81.4678 24.3424V24.3075C81.4678 24.2099 81.4678 24.182 81.6002 24.1541C81.7518 24.1245 81.906 24.1104 82.0604 24.1123C82.653 24.1123 82.9528 24.3424 82.9528 24.8095V25.6532C82.9249 26.0854 82.6461 26.2946 82.0325 26.2946ZM82.1022 25.0396C81.5026 25.0396 81.2377 25.2278 81.2377 25.6532C81.2377 26.0785 81.5096 26.2806 82.0325 26.2806C82.2754 26.3062 82.52 26.2524 82.7297 26.1273C82.8054 26.0672 82.8648 25.9892 82.9025 25.9003C82.9403 25.8114 82.9552 25.7144 82.9459 25.6183V24.7747C82.9514 24.6803 82.934 24.5859 82.8951 24.4997C82.8563 24.4135 82.7971 24.338 82.7227 24.2796C82.5234 24.1601 82.2923 24.1042 82.0604 24.1193C81.906 24.1174 81.7518 24.1314 81.6002 24.1611C81.4957 24.1611 81.4747 24.2029 81.4747 24.3006V24.3354C81.4747 24.3842 81.4747 24.4121 81.4747 24.4261C81.4747 24.44 81.5235 24.4261 81.5793 24.4261C81.7328 24.393 81.8894 24.3767 82.0464 24.3772C82.4369 24.3772 82.6042 24.4958 82.6042 24.7677V25.0326L82.1022 25.0396ZM82.0325 26.0157C81.7048 26.0157 81.5514 25.8972 81.5514 25.6532C81.5514 25.4091 81.7188 25.2767 82.1022 25.2767H82.6042V25.6043C82.6042 25.946 82.3881 26.0157 82.0325 26.0157ZM82.1022 25.3185C81.7188 25.3185 81.5584 25.4231 81.5584 25.681C81.5584 25.939 81.7118 26.0366 82.0325 26.0366C82.3532 26.0366 82.5972 25.9251 82.5972 25.6322V25.3185H82.1022ZM82.1022 23.9241C82.0186 23.9241 82.0116 23.9241 81.9976 23.8404C81.9837 23.7567 82.0395 23.687 82.1301 23.5894L82.1929 23.5266C82.2066 23.5156 82.2181 23.5018 82.2264 23.4863C82.2348 23.4707 82.24 23.4536 82.2417 23.436C82.2417 23.3593 82.2417 23.3314 82.1719 23.3245C82.116 23.3261 82.0612 23.3404 82.0116 23.3663C81.9558 23.3663 81.921 23.3663 81.8861 23.3175V23.2826C81.8861 23.2129 81.8861 23.192 81.9488 23.1711C82.028 23.1367 82.1136 23.1201 82.1998 23.1223C82.281 23.1199 82.3604 23.1472 82.4229 23.199C82.4512 23.2311 82.4726 23.2688 82.4858 23.3095C82.499 23.3503 82.5037 23.3934 82.4996 23.436C82.4933 23.4828 82.4777 23.5279 82.4538 23.5686C82.4298 23.6093 82.398 23.6448 82.3602 23.6731C82.3023 23.7101 82.2601 23.7672 82.2417 23.8334C82.2401 23.8551 82.2307 23.8754 82.2154 23.8908C82.2 23.9061 82.1797 23.9155 82.158 23.9171L82.1022 23.9241ZM82.151 23.3175C82.1929 23.3175 82.2347 23.3175 82.2347 23.436C82.2285 23.4742 82.2087 23.5089 82.1789 23.5336L82.1162 23.5964C82.0255 23.687 81.9767 23.7358 81.9837 23.8334C81.9907 23.931 81.9837 23.9101 82.0813 23.9101C82.1007 23.9073 82.1186 23.8983 82.1324 23.8845C82.1462 23.8707 82.1552 23.8528 82.158 23.8334C82.1761 23.7652 82.2181 23.7058 82.2765 23.6661C82.3157 23.6427 82.3496 23.6114 82.376 23.5742C82.4025 23.537 82.4208 23.4947 82.4299 23.45C82.4334 23.4084 82.4285 23.3666 82.4153 23.327C82.4021 23.2875 82.381 23.251 82.3532 23.2199C82.2942 23.1667 82.2165 23.1391 82.1371 23.1432C82.0509 23.141 81.9652 23.1576 81.8861 23.192C81.8373 23.192 81.8094 23.2338 81.8303 23.2966C81.8303 23.3593 81.8931 23.3593 81.9419 23.3454C82.0074 23.3159 82.0801 23.3063 82.151 23.3175Z" fill="#009EDB"/>
<path d="M83.6923 26.1162C83.6923 26.2278 83.6923 26.2487 83.5529 26.2487H83.5041C83.3995 26.2487 83.3716 26.2487 83.3716 26.1162V24.9101C83.3716 24.3802 83.6714 24.1152 84.257 24.1152C84.8427 24.1152 85.1425 24.3941 85.1425 24.9101V26.1162C85.1425 26.2278 85.1425 26.2487 85.0031 26.2487H84.9543C84.8357 26.2487 84.8148 26.2487 84.8148 26.1162V24.9101C84.8148 24.5684 84.6893 24.415 84.257 24.415C83.8248 24.415 83.6923 24.5754 83.6923 24.9101V26.1162Z" fill="#009EDB"/>
<path d="M85.0031 26.241H84.9543C84.8357 26.241 84.8148 26.241 84.8148 26.1016V24.9093C84.8148 24.5537 84.6614 24.4213 84.257 24.4213C83.8527 24.4213 83.6923 24.5537 83.6923 24.9093V26.1155C83.6923 26.2271 83.6923 26.2549 83.5529 26.2549H83.5041C83.3995 26.2549 83.3646 26.2549 83.3646 26.1155V24.9093C83.3646 24.3794 83.6644 24.1075 84.257 24.1075C84.3813 24.0947 84.5069 24.1066 84.6265 24.1425C84.7462 24.1784 84.8575 24.2376 84.9543 24.3167C85.0297 24.3946 85.0875 24.4878 85.1236 24.5901C85.1597 24.6924 85.1733 24.8013 85.1634 24.9093V26.1155C85.1425 26.241 85.1216 26.241 85.0031 26.241ZM84.257 24.3934C84.6684 24.3934 84.8218 24.5328 84.8218 24.8954V26.1016C84.8218 26.2131 84.8218 26.2271 84.9543 26.2271H85.0031C85.1146 26.2271 85.1355 26.2271 85.1355 26.1016V24.9093C85.144 24.803 85.1304 24.6961 85.0956 24.5954C85.0608 24.4946 85.0056 24.4021 84.9333 24.3237C84.8361 24.2458 84.7245 24.1879 84.6048 24.1532C84.4852 24.1185 84.3599 24.1077 84.2361 24.1215C83.9872 24.0933 83.737 24.1633 83.5389 24.3167C83.4613 24.3936 83.4012 24.4864 83.3627 24.5887C83.3242 24.6909 83.3082 24.8003 83.3158 24.9093V26.1155C83.3158 26.2271 83.3507 26.241 83.4483 26.241H83.4971C83.6086 26.241 83.6296 26.241 83.6296 26.1155V24.9093C83.6853 24.5468 83.8248 24.4073 84.257 24.4073V24.3934Z" fill="#009EDB"/>
<path d="M86.8027 23.4505C86.8027 23.332 86.8027 23.311 86.9422 23.311H86.991C87.1025 23.311 87.1235 23.311 87.1235 23.4505V24.4336C87.2038 24.3283 87.3108 24.2464 87.4333 24.1961C87.5558 24.1459 87.6895 24.1292 87.8207 24.1477C88.3366 24.1477 88.6015 24.3917 88.6015 24.8937V26.1487C88.6015 26.2603 88.6015 26.2812 88.4691 26.2812H88.4133C88.3017 26.2812 88.2808 26.2812 88.2808 26.1487V24.8937C88.2808 24.559 88.1274 24.4126 87.737 24.4126C87.3466 24.4126 87.1513 24.573 87.1513 24.9634V26.1138C87.1513 26.2254 87.1513 26.2463 87.0189 26.2463H86.9701C86.8585 26.2463 86.8306 26.2463 86.8306 26.1138L86.8027 23.4505Z" fill="#009EDB"/>
<path d="M88.4412 26.2392H88.3854C88.2738 26.2392 88.246 26.2392 88.246 26.0998V24.8936C88.246 24.552 88.0926 24.4195 87.7091 24.4195C87.3256 24.4195 87.1304 24.5799 87.1304 24.9633V26.1137C87.1304 26.2253 87.1304 26.2532 86.991 26.2532H86.9422C86.8376 26.2532 86.8027 26.2532 86.8027 26.1137V23.4504C86.8027 23.3249 86.8027 23.304 86.9422 23.304H86.991C87.1025 23.304 87.1304 23.304 87.1304 23.4504V24.4195C87.2121 24.3161 87.3194 24.2359 87.4418 24.1869C87.5641 24.138 87.6972 24.122 87.8276 24.1406C88.3505 24.1406 88.6155 24.3916 88.6155 24.8936V26.1486C88.5806 26.2392 88.5527 26.2392 88.4412 26.2392ZM87.744 24.3916C88.1344 24.3916 88.2948 24.538 88.2948 24.8797V26.0998C88.2948 26.2113 88.2948 26.2253 88.4203 26.2253H88.476C88.5876 26.2253 88.6015 26.2253 88.6015 26.0998V24.8448C88.6015 24.3498 88.3436 24.1058 87.8276 24.1058C87.6965 24.0872 87.5628 24.1039 87.4403 24.1542C87.3178 24.2044 87.2108 24.2864 87.1304 24.3916V23.4504C87.1304 23.3388 87.1304 23.3179 87.0049 23.3179H86.9561C86.8515 23.3179 86.8236 23.3179 86.8236 23.4504V26.1486C86.8236 26.2601 86.8237 26.2741 86.9561 26.2741H87.0049C87.1095 26.2741 87.1304 26.2741 87.1304 26.1486V24.9633C87.1165 24.5729 87.3047 24.4056 87.7091 24.4056L87.744 24.3916Z" fill="#009EDB"/>
<path d="M89.0308 25.3956V25.0052C89.0308 24.4126 89.3375 24.1128 89.965 24.1128C90.1384 24.0871 90.3155 24.1181 90.4699 24.2009C90.6244 24.2838 90.7481 24.4143 90.8226 24.5729C90.8853 24.5729 90.9481 24.4614 90.9481 24.2383C90.9481 24.1755 90.9481 24.1546 91.0457 24.1546H91.1154C91.1921 24.1546 91.2061 24.1546 91.2061 24.2383C91.2061 24.5799 91.0666 24.7472 90.8714 24.803C90.8788 24.8702 90.8788 24.938 90.8714 25.0052V25.3956C90.8714 25.9952 90.5646 26.2881 89.9511 26.2881C89.3375 26.2881 89.0308 25.9813 89.0308 25.3956ZM90.5716 25.0052C90.5716 24.5938 90.4252 24.4126 89.965 24.4126C89.5049 24.4126 89.3445 24.5938 89.3445 25.0052V25.3956C89.3445 25.807 89.4979 25.9883 89.965 25.9883C90.4321 25.9883 90.5716 25.807 90.5716 25.3956V25.0052Z" fill="#009EDB"/>
<path d="M89.9642 26.3004C89.3228 26.3004 89.023 26.0146 89.023 25.401V25.0106C89.012 24.8843 89.0273 24.757 89.0681 24.637C89.109 24.517 89.1743 24.4068 89.2601 24.3134C89.4554 24.1526 89.7049 24.0728 89.9573 24.0902C90.4174 24.0902 90.6893 24.2367 90.8148 24.5504C90.8985 24.5155 90.9334 24.404 90.9334 24.2227C90.9334 24.153 90.9334 24.1321 91.038 24.1321H91.1077C91.1844 24.1321 91.2053 24.1321 91.2053 24.2227C91.2053 24.5295 91.0937 24.7247 90.8706 24.7944C90.8743 24.8594 90.8743 24.9246 90.8706 24.9897V25.3801C90.889 25.504 90.8783 25.6304 90.8395 25.7495C90.8007 25.8685 90.7347 25.9769 90.6468 26.0662C90.559 26.1554 90.4516 26.223 90.3331 26.2636C90.2147 26.3043 90.0884 26.3169 89.9642 26.3004ZM89.9642 24.1251C89.7125 24.1035 89.4624 24.1811 89.267 24.3412C89.181 24.4342 89.116 24.5446 89.0763 24.6649C89.0366 24.7852 89.0232 24.9125 89.0369 25.0385V25.4289C89.0369 26.0355 89.3298 26.3144 89.9642 26.3144C90.2159 26.3352 90.4657 26.2577 90.6615 26.0982C90.7474 26.0052 90.8125 25.8949 90.8522 25.7746C90.8919 25.6543 90.9053 25.5269 90.8915 25.401V25.0106C90.8952 24.9432 90.8952 24.8757 90.8915 24.8084C91.1146 24.7387 91.2192 24.5504 91.2192 24.2436C91.2192 24.1809 91.2192 24.1669 91.1356 24.1669H91.0658C90.9961 24.1669 90.9752 24.1669 90.9752 24.2436C90.9752 24.4319 90.9334 24.5434 90.8427 24.5853C90.6893 24.2715 90.4244 24.153 89.9642 24.153V24.1251ZM89.9642 26.0006C89.518 26.0006 89.3437 25.8333 89.3437 25.401V25.0106C89.3437 24.5783 89.5111 24.411 89.9642 24.411C90.4174 24.411 90.5708 24.5783 90.5708 25.0106V25.401C90.5708 25.8402 90.4105 26.0006 89.9642 26.0006ZM89.9642 24.4249C89.518 24.4249 89.3507 24.5783 89.3507 25.0106V25.401C89.3507 25.8263 89.525 25.9867 89.9642 25.9867C90.4035 25.9867 90.5638 25.8333 90.5638 25.401V25.0106C90.5638 24.5783 90.4035 24.4249 89.9642 24.4249Z" fill="#009EDB"/>
<path d="M91.6597 26.1162C91.6597 26.2278 91.6597 26.2487 91.5202 26.2487H91.4923C91.3878 26.2487 91.3599 26.2487 91.3599 26.1162V24.9101C91.3599 24.3802 91.6527 24.1152 92.2453 24.1152C92.838 24.1152 93.1308 24.3941 93.1308 24.9101V26.1162C93.1308 26.2278 93.1308 26.2487 92.9914 26.2487H92.9426C92.824 26.2487 92.8031 26.2487 92.8031 26.1162V24.9101C92.8031 24.5684 92.6776 24.415 92.2453 24.415C91.8131 24.415 91.6806 24.5754 91.6806 24.9101L91.6597 26.1162Z" fill="#009EDB"/>
<path d="M92.9702 26.241H92.9214C92.8029 26.241 92.782 26.241 92.782 26.1016V24.9093C92.782 24.5537 92.6286 24.4213 92.2242 24.4213C91.8198 24.4213 91.6595 24.5537 91.6595 24.9093V26.1155C91.6595 26.2271 91.6595 26.2549 91.52 26.2549H91.4921C91.3876 26.2549 91.3527 26.2549 91.3527 26.1155V24.9093C91.3527 24.3794 91.6525 24.1075 92.2451 24.1075C92.3694 24.0947 92.495 24.1066 92.6146 24.1425C92.7343 24.1784 92.8456 24.2376 92.9423 24.3167C93.0178 24.3946 93.0756 24.4878 93.1117 24.5901C93.1478 24.6924 93.1614 24.8013 93.1515 24.9093V26.1155C93.1097 26.241 93.0888 26.241 92.9702 26.241ZM92.2242 24.3934C92.6356 24.3934 92.789 24.5328 92.789 24.8954V26.1016C92.789 26.2131 92.789 26.2271 92.9214 26.2271H92.9702C93.0818 26.2271 93.1027 26.2271 93.1027 26.1016V24.9093C93.1112 24.803 93.0976 24.6961 93.0628 24.5954C93.028 24.4946 92.9727 24.4021 92.9005 24.3237C92.8033 24.2458 92.6917 24.1879 92.572 24.1532C92.4524 24.1185 92.3271 24.1077 92.2033 24.1215C91.9543 24.0933 91.7042 24.1633 91.5061 24.3167C91.4285 24.3936 91.3684 24.4864 91.3299 24.5887C91.2914 24.6909 91.2754 24.8003 91.283 24.9093V26.1155C91.283 26.2271 91.3178 26.241 91.4154 26.241H91.4921C91.6037 26.241 91.6246 26.241 91.6246 26.1155V24.9093C91.6525 24.5468 91.8129 24.4073 92.2242 24.4073V24.3934Z" fill="#009EDB"/>
</svg>
