<svg width="11" height="12" viewBox="0 0 11 12" fill="none" xmlns="http://www.w3.org/2000/svg">
<path d="M9.54184 9.29304H9.44804H8.58738V8.3758V8.33858C8.58738 8.01546 8.32532 7.75488 8.00369 7.75488C7.68206 7.75488 7.41999 8.01695 7.41999 8.33858V8.3758V9.29304H6.5102H6.46553C6.14241 9.29304 5.88184 9.55511 5.88184 9.87673C5.88184 10.1984 6.1439 10.4604 6.46553 10.4604H6.5102H7.41999V11.3494V11.4149C7.41999 11.738 7.68206 11.9986 8.00369 11.9986C8.32532 11.9986 8.58738 11.7365 8.58738 11.4149V11.3494V10.4604H9.44804H9.54184C9.86496 10.4604 10.1255 10.1984 10.1255 9.87673C10.1255 9.55511 9.86347 9.29304 9.54184 9.29304Z" fill="#003644"/>
<path d="M9.65628 2.81276H8.22832C8.04219 1.23142 6.69314 0 5.06266 0C3.43219 0 2.08314 1.23142 1.89701 2.81276H0.469041C0.209952 2.81276 0 3.02271 0 3.2818V11.5324C0 11.7915 0.209952 12.0015 0.469041 12.0015H5.01353C5.27261 12.0015 5.48257 11.7915 5.48257 11.5324C5.48257 11.2734 5.27261 11.0634 5.01353 11.0634H0.938082V3.75084H1.87616V5.15647C1.87616 5.41556 2.08611 5.62551 2.3452 5.62551C2.60429 5.62551 2.81424 5.41556 2.81424 5.15647V3.75084H7.31406V5.15647C7.31406 5.41556 7.52401 5.62551 7.7831 5.62551C8.04219 5.62551 8.25214 5.41556 8.25214 5.15647V3.75084H9.19022V6.7393C9.19022 6.99839 9.40017 7.20834 9.65926 7.20834C9.91835 7.20834 10.1253 6.99839 10.1253 6.7393V3.2818C10.1253 3.02271 9.91537 2.81276 9.65628 2.81276ZM2.84403 2.81276C3.02271 1.7496 3.95037 0.938082 5.06266 0.938082C6.17496 0.938082 7.10262 1.7496 7.2813 2.81276H2.84403Z" fill="#003644"/>
</svg>
