<svg width="15" height="16" viewBox="0 0 15 16" fill="none" xmlns="http://www.w3.org/2000/svg">
<path d="M11.7081 7.5H4.20813C4.14563 7.5 4.08313 7.53125 4.02063 7.59375C3.97896 7.63542 3.95813 7.6875 3.95813 7.75V8.25C3.95813 8.3125 3.97896 8.375 4.02063 8.4375C4.08313 8.47917 4.14563 8.5 4.20813 8.5H11.7081C11.7706 8.5 11.8227 8.47917 11.8644 8.4375C11.9269 8.375 11.9581 8.3125 11.9581 8.25V7.75C11.9581 7.6875 11.9269 7.63542 11.8644 7.59375C11.8227 7.53125 11.7706 7.5 11.7081 7.5ZM11.7081 10.5H4.20813C4.14563 10.5 4.08313 10.5312 4.02063 10.5938C3.97896 10.6354 3.95813 10.6875 3.95813 10.75V11.25C3.95813 11.3125 3.97896 11.375 4.02063 11.4375C4.08313 11.4792 4.14563 11.5 4.20813 11.5H11.7081C11.7706 11.5 11.8227 11.4792 11.8644 11.4375C11.9269 11.375 11.9581 11.3125 11.9581 11.25V10.75C11.9581 10.6875 11.9269 10.6354 11.8644 10.5938C11.8227 10.5312 11.7706 10.5 11.7081 10.5ZM14.0206 0C13.8331 0 13.656 0.0625 13.4894 0.1875L12.1144 1.15625L10.9269 0.28125C10.656 0.09375 10.354 0 10.0206 0C9.70813 0 9.42688 0.09375 9.17688 0.28125L7.95813 1.15625L6.73938 0.28125C6.48938 0.09375 6.19771 0 5.86438 0C5.55188 0 5.26021 0.09375 4.98938 0.28125L3.80188 1.15625L2.42688 0.1875C2.26021 0.0625 2.08313 0 1.89563 0C1.64563 0 1.42688 0.09375 1.23938 0.28125C1.05188 0.447917 0.95813 0.666667 0.95813 0.9375V15.0625C0.95813 15.3333 1.05188 15.5521 1.23938 15.7188C1.42688 15.9062 1.64563 16 1.89563 16C2.08313 16 2.26021 15.9375 2.42688 15.8125L3.80188 14.8438L4.98938 15.7188C5.26021 15.9062 5.55188 16 5.86438 16C6.19771 16 6.48938 15.9062 6.73938 15.7188L7.95813 14.8438L9.17688 15.7188C9.42688 15.9062 9.70813 16 10.0206 16C10.354 16 10.656 15.9062 10.9269 15.7188L12.1144 14.8438L13.4894 15.8125C13.656 15.9375 13.8331 16 14.0206 16C14.2706 16 14.4894 15.9062 14.6769 15.7188C14.8644 15.5521 14.9581 15.3333 14.9581 15.0625V0.9375C14.9581 0.666667 14.8644 0.447917 14.6769 0.28125C14.4894 0.09375 14.2706 0 14.0206 0ZM13.9581 14.9375L12.7081 14.0312L12.1144 13.5938L10.3331 14.9062C10.2498 14.9688 10.156 15 10.0519 15C9.94771 15 9.84355 14.9688 9.73938 14.9062L7.95813 13.5938L6.17688 14.9062C6.09355 14.9688 5.98938 15 5.86438 15C5.76021 15 5.66646 14.9688 5.58313 14.9062L3.80188 13.5938L1.95813 14.9375V1.0625L3.80188 2.375L5.58313 1.09375C5.66646 1.03125 5.76021 1 5.86438 1C5.96855 1 6.07271 1.03125 6.17688 1.09375L7.95813 2.375L9.73938 1.09375C9.84355 1.03125 9.94771 1 10.0519 1C10.156 1 10.2498 1.03125 10.3331 1.09375L12.1144 2.375L13.9581 1.0625V14.9375ZM11.7081 4.5H4.20813C4.14563 4.5 4.08313 4.53125 4.02063 4.59375C3.97896 4.63542 3.95813 4.6875 3.95813 4.75V5.25C3.95813 5.3125 3.97896 5.375 4.02063 5.4375C4.08313 5.47917 4.14563 5.5 4.20813 5.5H11.7081C11.7706 5.5 11.8227 5.47917 11.8644 5.4375C11.9269 5.375 11.9581 5.3125 11.9581 5.25V4.75C11.9581 4.6875 11.9269 4.63542 11.8644 4.59375C11.8227 4.53125 11.7706 4.5 11.7081 4.5Z" fill="black"/>
</svg>
