<svg width="26" height="26" viewBox="0 0 26 26" fill="none" xmlns="http://www.w3.org/2000/svg">
<circle cx="13" cy="13" r="13" fill="#00B156"/>
<path d="M15.832 7.17188C15.2578 7.69141 14.7383 8.23828 14.3008 8.8125C13.5625 7.77344 12.6328 6.73438 11.5938 5.75C8.88672 8.26562 7 11.4922 7 13.4609C7 16.9336 9.73438 19.75 13.125 19.75C16.4883 19.75 19.25 16.9336 19.25 13.4609C19.25 12.0117 17.8281 9.00391 15.832 7.17188ZM13.125 18.4375C10.4453 18.4375 8.3125 16.2227 8.3125 13.4609C8.3125 12.2305 9.51562 9.82422 11.5938 7.60938C12.1953 8.23828 12.7422 8.92188 13.2344 9.57812L14.2461 10.9453L15.3125 9.63281C15.4766 9.44141 15.6406 9.25 15.8047 9.05859C17.0625 10.6172 17.9375 12.6133 17.9375 13.4609C17.9375 16.2227 15.7773 18.4375 13.125 18.4375ZM15.5586 12.4219L14.1641 14.0078C14.1641 14.0078 11.9492 11.1914 11.7852 11C10.6367 12.3945 10.0625 13.2148 10.0625 14.1445C10.0625 16.0039 11.457 17.125 13.1797 17.125C13.8633 17.125 14.5195 16.9336 15.0391 16.5508C16.2148 15.7305 16.4883 14.1445 15.832 12.8867C15.75 12.75 15.668 12.5859 15.5586 12.4219Z" fill="white"/>
</svg>
