<svg width="18" height="16" viewBox="0 0 18 16" fill="none" xmlns="http://www.w3.org/2000/svg">
<path d="M13.7757 4.9375L12.057 4.6875L11.307 3.125L10.4007 3.59375L11.4007 5.59375L13.6507 5.9375L13.7757 4.9375ZM13.3695 13.2812L13.682 15L12.1507 14.1875L11.682 15.0938L13.2132 15.875C13.3591 15.9583 13.5153 16 13.682 16C13.9945 16 14.2445 15.875 14.432 15.625C14.5986 15.4583 14.682 15.25 14.682 15L14.3695 13.125L13.3695 13.2812ZM9.33823 12.75C9.19239 12.6667 9.04656 12.6562 8.90073 12.7188L4.55698 15L5.43198 9.9375L1.74448 6.34375L6.83823 5.59375L9.11948 1L9.74448 2.28125L10.6507 1.84375L10.0257 0.5625C9.94239 0.395833 9.81739 0.260417 9.65073 0.15625C9.48406 0.0520833 9.30698 0 9.11948 0C8.93198 0 8.75489 0.0520833 8.58823 0.15625C8.42156 0.239583 8.29656 0.375 8.21323 0.5625L6.18198 4.6875L1.58823 5.34375C1.40073 5.38542 1.23406 5.46875 1.08823 5.59375C0.942393 5.71875 0.838226 5.875 0.775726 6.0625C0.73406 6.22917 0.73406 6.40625 0.775726 6.59375C0.817393 6.78125 0.911143 6.9375 1.05698 7.0625L4.36948 10.2812L3.58823 14.8438C3.52573 15.1354 3.58823 15.3958 3.77573 15.625C3.98406 15.875 4.24448 16 4.55698 16C4.72364 16 4.87989 15.9583 5.02573 15.875L9.11948 13.75L10.6507 14.5312L11.1195 13.6562L9.33823 12.75ZM17.432 6.03125C17.3903 5.86458 17.2966 5.71875 17.1507 5.59375C17.0049 5.46875 16.8382 5.38542 16.6507 5.34375L14.932 5.09375L14.7757 6.09375L16.4945 6.34375L15.2445 7.5625L15.9632 8.28125L17.182 7.0625C17.3903 6.875 17.4945 6.63542 17.4945 6.34375C17.4945 6.23958 17.4736 6.13542 17.432 6.03125ZM12.807 9.9375L13.182 12.1562L14.182 12L13.8695 10.2812L15.1195 9.0625L14.432 8.34375L12.807 9.9375Z" fill="#00B156"/>
</svg>
