<svg width="57" height="57" viewBox="0 0 57 57" fill="none" xmlns="http://www.w3.org/2000/svg">
<circle cx="28.792" cy="28.0371" r="27.25" stroke="#778285" stroke-width="1.5"/>
<path d="M28.8347 20.6426C26.9441 20.6426 25.1309 21.4139 23.794 22.7869C22.4571 24.16 21.7061 26.0222 21.7061 27.9639C21.7061 29.9057 22.4571 31.7679 23.794 33.1409C25.1309 34.5139 26.9441 35.2852 28.8347 35.2852C30.7254 35.2852 32.5386 34.5139 33.8754 33.1409C35.2123 31.7679 35.9634 29.9057 35.9634 27.9639C35.9634 26.0222 35.2123 24.16 33.8754 22.7869C32.5386 21.4139 30.7254 20.6426 28.8347 20.6426V20.6426ZM28.8347 32.7187C27.6065 32.7187 26.4285 32.2175 25.56 31.3256C24.6915 30.4336 24.2036 29.2238 24.2036 27.9623C24.2036 26.7009 24.6915 25.4911 25.56 24.5991C26.4285 23.7071 27.6065 23.206 28.8347 23.206C30.063 23.206 31.2409 23.7071 32.1095 24.5991C32.978 25.4911 33.4659 26.7009 33.4659 27.9623C33.4659 29.2238 32.978 30.4336 32.1095 31.3256C31.2409 32.2175 30.063 32.7187 28.8347 32.7187V32.7187Z" fill="#778084"/>
<path d="M36.2449 22.0797C37.1628 22.0797 37.9068 21.3155 37.9068 20.3728C37.9068 19.4302 37.1628 18.666 36.2449 18.666C35.3271 18.666 34.583 19.4302 34.583 20.3728C34.583 21.3155 35.3271 22.0797 36.2449 22.0797Z" fill="#778084"/>
<path d="M41.9908 18.6376C41.6339 17.691 41.0885 16.8314 40.3896 16.1138C39.6906 15.3962 38.8534 14.8364 37.9316 14.4702C36.853 14.0544 35.7134 13.8295 34.5615 13.8052C33.0769 13.7387 32.6067 13.7197 28.842 13.7197C25.0772 13.7197 24.5947 13.7197 23.1224 13.8052C21.9713 13.8283 20.8326 14.0532 19.7554 14.4702C18.8334 14.836 17.996 15.3956 17.2969 16.1133C16.5979 16.831 16.0526 17.6908 15.6962 18.6376C15.2912 19.7453 15.0727 20.9157 15.0502 22.0987C14.9839 23.6219 14.9639 24.1048 14.9639 27.9729C14.9639 31.8394 14.9639 32.3318 15.0502 33.8471C15.0733 35.0314 15.2907 36.1999 15.6962 37.3098C16.0536 38.2563 16.5994 39.1157 17.2986 39.8333C17.9978 40.5508 18.8351 41.1107 19.7569 41.4771C20.8321 41.9097 21.9713 42.1507 23.1255 42.1896C24.6101 42.2561 25.0803 42.2767 28.845 42.2767C32.6098 42.2767 33.0923 42.2767 34.5646 42.1896C35.7164 42.1656 36.8559 41.9413 37.9347 41.5262C38.8562 41.1592 39.6932 40.5989 40.3921 39.8811C41.091 39.1633 41.6365 38.3038 41.9939 37.3573C42.3994 36.249 42.6167 35.0805 42.6399 33.8961C42.7062 32.373 42.7262 31.8901 42.7262 28.022C42.7262 24.1539 42.7262 23.6631 42.6399 22.1478C42.6219 20.9481 42.4023 19.7605 41.9908 18.6376V18.6376ZM40.1131 33.7299C40.1031 34.6424 39.941 35.5464 39.6336 36.4026C39.4021 37.0183 39.0477 37.5774 38.5931 38.044C38.1385 38.5105 37.5939 38.8742 36.9943 39.1116C36.1698 39.4258 35.299 39.5924 34.4197 39.6041C32.9551 39.6737 32.542 39.6911 28.7865 39.6911C25.0279 39.6911 24.644 39.6911 23.1517 39.6041C22.2728 39.593 21.4024 39.4264 20.5786 39.1116C19.9769 38.8757 19.4301 38.5127 18.9736 38.046C18.5171 37.5793 18.161 37.0194 17.9285 36.4026C17.6255 35.5556 17.4634 34.6622 17.449 33.76C17.3827 32.2558 17.3673 31.8315 17.3673 27.9745C17.3673 24.1159 17.3673 23.7216 17.449 22.1874C17.459 21.2754 17.6212 20.372 17.9285 19.5163C18.3987 18.2671 19.3622 17.2838 20.5786 16.8056C21.4028 16.4924 22.2729 16.3258 23.1517 16.3132C24.6178 16.2451 25.0294 16.2261 28.7865 16.2261C32.5435 16.2261 32.9289 16.2261 34.4197 16.3132C35.2991 16.3241 36.17 16.4907 36.9943 16.8056C37.5939 17.0436 38.1384 17.4076 38.5929 17.8744C39.0475 18.3413 39.4019 18.9005 39.6336 19.5163C39.9366 20.3633 40.0987 21.2566 40.1131 22.1589C40.1794 23.6646 40.1963 24.0874 40.1963 27.946C40.1963 31.803 40.1963 32.2178 40.13 33.7315H40.1131V33.7299Z" fill="#778084"/>
</svg>
