<svg width="57" height="57" viewBox="0 0 57 57" fill="none" xmlns="http://www.w3.org/2000/svg">
<circle cx="28.792" cy="28.0371" r="27.25" stroke="#778285" stroke-width="1.5"/>
<g clip-path="url(#clip0_170_28)">
<path d="M28.8812 17.5352H29.037C30.4755 17.5404 37.7642 17.5929 39.7295 18.1214C40.3236 18.2827 40.865 18.5971 41.2995 19.0332C41.7341 19.4692 42.0465 20.0117 42.2057 20.6064C42.3825 21.2714 42.5067 22.1517 42.5907 23.0599L42.6082 23.2419L42.6467 23.6969L42.6607 23.8789C42.7745 25.4784 42.7885 26.9764 42.7902 27.3037V27.4349C42.7885 27.7744 42.7727 29.3739 42.6467 31.0399L42.6327 31.2237L42.617 31.4057C42.5295 32.4067 42.4 33.4007 42.2057 34.1322C42.047 34.7271 41.7347 35.2698 41.3001 35.706C40.8655 36.1421 40.3238 36.4563 39.7295 36.6172C37.6995 37.1632 29.9837 37.2017 28.9145 37.2034H28.666C28.1252 37.2034 25.8887 37.1929 23.5437 37.1124L23.2462 37.1019L23.094 37.0949L22.7947 37.0827L22.4955 37.0704C20.553 36.9847 18.7032 36.8464 17.851 36.6154C17.2568 36.4547 16.7154 36.1408 16.2808 35.705C15.8462 35.2691 15.5337 34.7268 15.3747 34.1322C15.1805 33.4024 15.051 32.4067 14.9635 31.4057L14.9495 31.2219L14.9355 31.0399C14.8491 29.8541 14.8013 28.6658 14.792 27.4769L14.792 27.2617C14.7955 26.8854 14.8095 25.5852 14.904 24.1502L14.9162 23.9699L14.9215 23.8789L14.9355 23.6969L14.974 23.2419L14.9915 23.0599C15.0755 22.1517 15.1997 21.2697 15.3765 20.6064C15.5352 20.0115 15.8475 19.4687 16.2821 19.0326C16.7168 18.5965 17.2584 18.2822 17.8527 18.1214C18.705 17.8939 20.5547 17.7539 22.4972 17.6664L22.7947 17.6542L23.0957 17.6437L23.2462 17.6384L23.5455 17.6262C25.211 17.5726 26.8772 17.5428 28.5435 17.5369H28.8812V17.5352ZM25.992 23.1527V31.5842L33.2667 27.3702L25.992 23.1527Z" fill="#778084"/>
</g>
<defs>
<clipPath id="clip0_170_28">
<rect width="28" height="28" fill="white" transform="translate(14.792 14.0371)"/>
</clipPath>
</defs>
</svg>
