<svg width="57" height="57" viewBox="0 0 57 57" fill="none" xmlns="http://www.w3.org/2000/svg">
<circle cx="28.792" cy="28.0371" r="27.25" stroke="#778285" stroke-width="1.5"/>
<path d="M35.6922 18.7671C35.6922 18.7671 36.4572 19.5171 35.6922 18.7671C34.6669 17.5965 34.1018 16.0933 34.1022 14.5371H29.4672V33.1371C29.4315 34.1436 29.0065 35.097 28.2819 35.7965C27.5572 36.496 26.5894 36.887 25.5822 36.8871C23.4522 36.8871 21.6822 35.1471 21.6822 32.9871C21.6822 30.4071 24.1722 28.4721 26.7372 29.2671V24.5271C21.5622 23.8371 17.0322 27.8571 17.0322 32.9871C17.0322 37.9821 21.1722 41.5371 25.5672 41.5371C30.2772 41.5371 34.1022 37.7121 34.1022 32.9871V23.5521C35.9817 24.9019 38.2383 25.6261 40.5522 25.6221V20.9871C40.5522 20.9871 37.7322 21.1221 35.6922 18.7671Z" fill="#778084"/>
</svg>
